<?xml version="1.0" encoding="UTF-8" standalone="no"?>
<!-- Created with Inkscape (http://www.inkscape.org/) -->

<svg
   version="1.1"
   id="svg9360"
   width="784"
   height="784"
   viewBox="0 0 784 784"
   sodipodi:docname="wings-symbol-clipart-pdv.svg"
   inkscape:version="1.2 (dc2aedaf03, 2022-05-15)"
   xmlns:inkscape="http://www.inkscape.org/namespaces/inkscape"
   xmlns:sodipodi="http://sodipodi.sourceforge.net/DTD/sodipodi-0.dtd"
   xmlns="http://www.w3.org/2000/svg"
   xmlns:svg="http://www.w3.org/2000/svg">
  <defs
     id="defs9364">
    <clipPath
       clipPathUnits="userSpaceOnUse"
       id="clipPath9376">
      <path
         d="m 534.756,54.965 0.138,0.002 -0.008,0.33 c -0.042,-0.113 -0.088,-0.221 -0.13,-0.332"
         id="path9374" />
    </clipPath>
    <clipPath
       clipPathUnits="userSpaceOnUse"
       id="clipPath9384">
      <path
         d="m 535.084,55.65 h 0.416 v -0.416 h -0.416 z"
         id="path9382" />
    </clipPath>
    <clipPath
       clipPathUnits="userSpaceOnUse"
       id="clipPath9394">
      <path
         d="m 535.08446,55.649617 h 0.13908 v -0.332078 h -0.13908 z"
         id="path9392" />
    </clipPath>
    <linearGradient
       x1="0"
       y1="0"
       x2="1"
       y2="0"
       gradientUnits="userSpaceOnUse"
       gradientTransform="matrix(0.1388,0,0,-0.1388,535.08403,55.483436)"
       spreadMethod="pad"
       id="linearGradient9400">
      <stop
         style="stop-opacity:1;stop-color:#ffffff"
         offset="0"
         id="stop9396" />
      <stop
         style="stop-opacity:1;stop-color:#231f20"
         offset="1"
         id="stop9398" />
    </linearGradient>
    <clipPath
       clipPathUnits="userSpaceOnUse"
       id="clipPath9410">
      <path
         d="m 538.504,318.742 c -1.108,-0.526 -2.387,-1.163 -3.646,-1.79 v 0 c -10.963,-5.466 -33.721,-16.809 -63.686,-17.383 v 0 c -1.441,-0.513 -2.836,-0.999 -4.166,-1.453 v 0 c -31.72,-10.823 -68.009,-18.181 -92.763,-18.832 v 0 c -1.684,-1.091 -3.384,-1.988 -5,-2.714 v 0 c 0.068,-0.012 0.135,-0.023 0.202,-0.035 v 0 c 3.064,-0.5 6.194,-0.797 9.325,-1.068 v 0 c 6.278,-0.48 12.611,-0.641 18.948,-0.606 v 0 c 12.674,0.088 25.375,0.917 37.999,2.399 v 0 c 12.625,1.48 25.194,3.584 37.56,6.595 v 0 c 12.342,3.029 24.582,6.842 35.987,12.591 v 0 C 498.052,290.32 485.892,286.08 473.597,282.629 v 0 c -12.323,-3.436 -24.888,-5.97 -37.545,-7.879 v 0 c -12.659,-1.913 -25.423,-3.174 -38.251,-3.689 v 0 c -6.415,-0.246 -12.848,-0.3 -19.304,-0.019 v 0 c -3.229,0.172 -6.463,0.37 -9.712,0.789 v 0 c -1.981,0.255 -3.963,0.537 -5.96,0.954 v 0 c 0.087,-1.07 0.128,-2.196 0.106,-3.36 v 0 c 30.275,-4.959 65.086,-5.031 98.349,-0.155 v 0 c 30.886,4.527 51.275,11.856 57.149,16.752 v 0 c 12.724,10.605 19.482,24.547 20.938,32.72 v 0 z"
         id="path9408" />
    </clipPath>
    <clipPath
       clipPathUnits="userSpaceOnUse"
       id="clipPath9420">
      <path
         d="m 362.61328,318.76609 h 176.6163 v -54.78302 h -176.6163 z"
         id="path9418" />
    </clipPath>
    <linearGradient
       x1="0"
       y1="0"
       x2="1"
       y2="0"
       gradientUnits="userSpaceOnUse"
       gradientTransform="matrix(176.6163,0,0,-176.6163,362.61328,292.00784)"
       spreadMethod="pad"
       id="linearGradient9426">
      <stop
         style="stop-opacity:1;stop-color:#ffffff"
         offset="0"
         id="stop9422" />
      <stop
         style="stop-opacity:1;stop-color:#000000"
         offset="1"
         id="stop9424" />
    </linearGradient>
    <clipPath
       clipPathUnits="userSpaceOnUse"
       id="clipPath9436">
      <path
         d="m 335.93,239.758 c -0.368,-0.597 -0.699,-1.221 -1.01,-1.873 v 0 c 4.661,-8.627 29.553,-53.032 50.969,-58.654 v 0 c 17.824,-4.68 27.052,1.376 30.667,4.878 v 0 c -8.323,4.233 -31.919,17.326 -45.081,35.801 v 0 c -10.004,5.441 -19.444,11.308 -27.441,16.713 v 0 c 2.031,-3.227 4.098,-6.417 6.263,-9.557 v 0 c 3.925,-5.707 8.073,-11.268 12.58,-16.528 v 0 c 4.512,-5.249 9.332,-10.264 14.684,-14.678 v 0 c 5.339,-4.406 11.192,-8.293 17.683,-10.901 v 0 c -6.637,2.21 -12.789,5.77 -18.462,9.903 v 0 c -5.686,4.139 -10.882,8.924 -15.779,13.973 v 0 c -4.896,5.057 -9.443,10.441 -13.772,15.985 v 0 c -3.806,4.862 -7.407,9.912 -10.921,14.938 v 0 z"
         id="path9434" />
    </clipPath>
    <clipPath
       clipPathUnits="userSpaceOnUse"
       id="clipPath9446">
      <path
         d="m 334.74512,239.76727 h 81.6364 v -65.49248 h -81.6364 z"
         id="path9444" />
    </clipPath>
    <linearGradient
       x1="0"
       y1="0"
       x2="1"
       y2="0"
       gradientUnits="userSpaceOnUse"
       gradientTransform="matrix(81.636398,0,0,-81.636398,334.74512,208.50714)"
       spreadMethod="pad"
       id="linearGradient9452">
      <stop
         style="stop-opacity:1;stop-color:#ffffff"
         offset="0"
         id="stop9448" />
      <stop
         style="stop-opacity:1;stop-color:#000000"
         offset="1"
         id="stop9450" />
    </linearGradient>
    <clipPath
       clipPathUnits="userSpaceOnUse"
       id="clipPath9462">
      <path
         d="m 353.553,249.598 c -0.593,-0.423 -1.221,-0.823 -1.885,-1.201 v 0 c 5.894,-3.626 12.01,-6.959 18.244,-10.06 v 0 c 7.676,-3.809 15.544,-7.262 23.563,-10.337 v 0 c 8.021,-3.07 16.196,-5.764 24.521,-7.945 v 0 c 8.32,-2.176 16.796,-3.852 25.39,-4.69 v 0 c -8.626,0.417 -17.21,1.68 -25.681,3.457 v 0 c -8.471,1.783 -16.838,4.091 -25.078,6.791 v 0 c -8.241,2.704 -16.357,5.801 -24.323,9.28 v 0 c -7.606,3.332 -15.077,6.994 -22.337,11.17 v 0 c -0.261,-0.073 -0.515,-0.151 -0.784,-0.217 v 0 c -1.445,-0.362 -2.675,-0.788 -3.736,-1.272 v 0 c 23.822,-16.827 70.671,-44.067 96.417,-39.386 v 0 c 17.318,3.15 25.351,9.313 28.779,13.066 v 0 0.472 c -13.345,2.599 -54.283,11.128 -65.374,19.994 v 0 c -15.507,2.432 -31.307,6.083 -45.866,10.878 v 0 z"
         id="path9460" />
    </clipPath>
    <clipPath
       clipPathUnits="userSpaceOnUse"
       id="clipPath9472">
      <path
         d="m 341.08789,249.59795 h 125.5551 v -49.51429 h -125.5551 z"
         id="path9470" />
    </clipPath>
    <linearGradient
       x1="0"
       y1="0"
       x2="1"
       y2="0"
       gradientUnits="userSpaceOnUse"
       gradientTransform="matrix(125.5551,0,0,-125.5551,341.08789,226.91466)"
       spreadMethod="pad"
       id="linearGradient9478">
      <stop
         style="stop-opacity:1;stop-color:#ffffff"
         offset="0"
         id="stop9474" />
      <stop
         style="stop-opacity:1;stop-color:#000000"
         offset="1"
         id="stop9476" />
    </linearGradient>
    <clipPath
       clipPathUnits="userSpaceOnUse"
       id="clipPath9488">
      <path
         d="m 315.842,299.098 c -7.806,-17.502 -2.549,-25.266 3.007,-33.474 v 0 c 6.341,-9.364 12.881,-19.019 -3.215,-40.965 v 0 h 0.362 c 9.072,2.965 11.044,7.659 13.108,12.576 v 0 c 2.158,5.14 4.604,10.965 14.85,13.527 v 0 c 17.673,4.419 13.529,24.031 13.343,24.864 v 0 c -0.151,0.679 -0.016,1.39 0.373,1.966 v 0 c 0.39,0.577 0.999,0.969 1.685,1.083 v 0 c 0.126,0.022 13.105,2.321 18.991,11.539 v 0 c 3.142,4.922 3.742,11.056 1.786,18.234 v 0 c -0.283,1.031 0.114,2.129 0.99,2.742 v 0 c 17.351,12.146 23.178,29.957 23.848,37.099 v 0 c -9.956,-9.338 -51.181,-45.923 -89.128,-49.191"
         id="path9486" />
    </clipPath>
    <clipPath
       clipPathUnits="userSpaceOnUse"
       id="clipPath9498">
      <path
         d="m 308.29592,348.43973 h 96.93465 V 224.65847 h -96.93465 z"
         id="path9496" />
    </clipPath>
    <linearGradient
       x1="0"
       y1="0"
       x2="1"
       y2="0"
       gradientUnits="userSpaceOnUse"
       gradientTransform="matrix(93.075897,0,0,-93.075897,312.15467,286.5491)"
       spreadMethod="pad"
       id="linearGradient9504">
      <stop
         style="stop-opacity:1;stop-color:#ffffff"
         offset="0"
         id="stop9500" />
      <stop
         style="stop-opacity:1;stop-color:#000000"
         offset="1"
         id="stop9502" />
    </linearGradient>
    <clipPath
       clipPathUnits="userSpaceOnUse"
       id="clipPath9514">
      <path
         d="m 332.233,231.818 c -0.043,-0.086 -0.086,-0.172 -0.129,-0.259 v 0 c 0.224,-2.881 0.572,-5.852 0.974,-8.768 v 0 c 0.445,-3.187 0.973,-6.366 1.589,-9.53 v 0 c 1.233,-6.323 2.792,-12.595 4.826,-18.716 v 0 c 1,-3.066 2.153,-6.08 3.434,-9.039 v 0 c 1.269,-2.965 2.711,-5.858 4.343,-8.643 v 0 c 3.217,-5.585 7.32,-10.735 12.501,-14.707 v 0 c -5.427,3.623 -9.941,8.573 -13.574,14.034 v 0 c -1.842,2.722 -3.5,5.57 -4.988,8.503 v 0 c -1.497,2.928 -2.873,5.922 -4.094,8.977 v 0 c -2.475,6.098 -4.479,12.38 -6.154,18.746 v 0 c -0.838,3.184 -1.586,6.392 -2.251,9.62 v 0 c -0.259,1.264 -0.502,2.523 -0.736,3.784 v 0 c -0.343,-0.338 -0.707,-0.672 -1.096,-1 v 0 c 1.476,-24.391 4.841,-57.251 16.629,-65.67 v 0 c 12.157,-8.686 24.648,-5.668 30.225,-3.563 v 0 0.218 c -6.625,8.038 -24.82,31.832 -26.373,52.306 v 0 c -6.57,9.298 -11.854,18.273 -14.897,23.707 v 0 z"
         id="path9512" />
    </clipPath>
    <clipPath
       clipPathUnits="userSpaceOnUse"
       id="clipPath9524">
      <path
         d="m 326.74219,231.81806 h 46.99009 v -81.64378 h -46.99009 z"
         id="path9522" />
    </clipPath>
    <linearGradient
       x1="0"
       y1="0"
       x2="1"
       y2="0"
       gradientUnits="userSpaceOnUse"
       gradientTransform="matrix(46.990799,0,0,-46.990799,326.74219,192.45998)"
       spreadMethod="pad"
       id="linearGradient9530">
      <stop
         style="stop-opacity:1;stop-color:#ffffff"
         offset="0"
         id="stop9526" />
      <stop
         style="stop-opacity:1;stop-color:#000000"
         offset="1"
         id="stop9528" />
    </linearGradient>
    <clipPath
       clipPathUnits="userSpaceOnUse"
       id="clipPath9540">
      <path
         d="M 498.498,513.182 C 495.125,454.89 438.124,369.301 410.024,350.549 v 0 c 0.084,-1.464 -0.065,-3.397 -0.494,-5.673 v 0 c 3.21,1.685 6.342,3.63 9.369,5.736 v 0 c 4.532,3.145 8.888,6.597 13.103,10.226 v 0 c 8.416,7.276 16.307,15.221 23.671,23.628 v 0 c 7.358,8.414 14.237,17.273 20.408,26.62 v 0 c 6.118,9.362 11.633,19.208 15.448,29.785 v 0 c -3.414,-10.716 -8.579,-20.819 -14.377,-30.462 v 0 c -5.851,-9.631 -12.439,-18.809 -19.544,-27.577 v 0 c -7.111,-8.762 -14.78,-17.092 -23.073,-24.826 v 0 c -4.153,-3.858 -8.474,-7.559 -13.046,-10.992 v 0 c -4.255,-3.2 -8.763,-6.138 -13.679,-8.557 v 0 c -0.874,-2.566 -2.031,-5.327 -3.497,-8.17 v 0 -0.082 c 45.929,22.512 73.478,52.752 88.694,74.691 v 0 c 21.183,30.539 27.459,57.471 26.399,71.254 v 0 c -0.926,12.042 -11.972,28.58 -20.907,37.032 v 0 z"
         id="path9538" />
    </clipPath>
    <clipPath
       clipPathUnits="userSpaceOnUse"
       id="clipPath9550">
      <path
         d="M 404.31348,513.18164 H 520.52273 V 330.1761 H 404.31348 Z"
         id="path9548" />
    </clipPath>
    <linearGradient
       x1="0"
       y1="0"
       x2="1"
       y2="0"
       gradientUnits="userSpaceOnUse"
       gradientTransform="matrix(115.2618,0,0,-115.2618,404.31348,421.67887)"
       spreadMethod="pad"
       id="linearGradient9556">
      <stop
         style="stop-opacity:1;stop-color:#ffffff"
         offset="0"
         id="stop9552" />
      <stop
         style="stop-opacity:1;stop-color:#000000"
         offset="1"
         id="stop9554" />
    </linearGradient>
    <clipPath
       clipPathUnits="userSpaceOnUse"
       id="clipPath9566">
      <path
         d="M 482.507,383.232 C 464.719,362.861 438.043,339.83 399.419,322.285 v 0 c -2.02,-2.821 -4.363,-5.623 -7.075,-8.307 v 0 c 2.589,0.791 5.174,1.641 7.735,2.586 v 0 c 5.917,2.157 11.761,4.593 17.527,7.202 v 0 c 11.534,5.229 22.779,11.147 33.678,17.646 v 0 c 5.445,3.259 10.786,6.693 16.018,10.289 v 0 c 5.226,3.604 10.352,7.361 15.274,11.375 v 0 c 4.929,4.007 9.691,8.223 14.189,12.717 v 0 c 4.494,4.493 8.732,9.264 12.499,14.402 v 0 c -3.595,-5.261 -7.683,-10.184 -12.044,-14.843 v 0 c -4.364,-4.657 -9.008,-9.054 -13.83,-13.247 v 0 c -4.815,-4.201 -9.845,-8.15 -14.984,-11.951 v 0 c -5.144,-3.794 -10.408,-7.429 -15.784,-10.895 v 0 c -10.763,-6.91 -21.897,-13.251 -33.39,-18.93 v 0 c -5.75,-2.834 -11.591,-5.499 -17.567,-7.906 v 0 c -2.984,-1.214 -6.018,-2.33 -9.106,-3.355 v 0 c -2.252,-0.74 -4.523,-1.42 -6.914,-1.945 v 0 c 0.484,-2.398 0.709,-4.704 0.675,-6.911 v 0 c 50.855,15.422 90.339,35.829 117.401,60.694 v 0 c 26.818,24.639 35.09,47.748 37.31,62.797 v 0 c 2.258,15.313 -1.084,27.368 -6.02,32.961 v 0 c -7.739,-17.623 -35.218,-57.47 -52.504,-73.432"
         id="path9564" />
    </clipPath>
    <clipPath
       clipPathUnits="userSpaceOnUse"
       id="clipPath9576">
      <path
         d="M 385.22656,456.96774 H 542.87197 V 300.51364 H 385.22656 Z"
         id="path9574" />
    </clipPath>
    <linearGradient
       x1="0"
       y1="0"
       x2="1"
       y2="0"
       gradientUnits="userSpaceOnUse"
       gradientTransform="matrix(156.1062,0,0,-156.10629,385.22656,378.74069)"
       spreadMethod="pad"
       id="linearGradient9582">
      <stop
         style="stop-opacity:1;stop-color:#ffffff"
         offset="0"
         id="stop9578" />
      <stop
         style="stop-opacity:1;stop-color:#000000"
         offset="1"
         id="stop9580" />
    </linearGradient>
    <clipPath
       clipPathUnits="userSpaceOnUse"
       id="clipPath9592">
      <path
         d="m 462.015,264.255 c -16.7,-2.448 -33.795,-3.669 -50.531,-3.669 v 0 c -16.984,0 -33.584,1.274 -49.047,3.787 v 0 c -0.162,-0.898 -0.374,-1.799 -0.63,-2.696 v 0 l 0.797,-0.289 c 0.566,-0.2 1.117,-0.431 1.7,-0.605 v 0 l 1.748,-0.516 3.502,-1.036 c 1.184,-0.309 2.381,-0.588 3.569,-0.884 v 0 c 1.193,-0.286 2.378,-0.602 3.579,-0.861 v 0 l 3.617,-0.748 c 1.208,-0.241 2.41,-0.513 3.624,-0.729 v 0 l 3.647,-0.637 c 9.733,-1.68 19.574,-2.882 29.448,-3.728 v 0 c 9.874,-0.846 19.793,-1.254 29.711,-1.169 v 0 c 2.483,-0.022 4.958,0.101 7.438,0.198 v 0 c 1.235,0.063 2.48,0.065 3.714,0.178 v 0 l 3.71,0.298 c 4.951,0.371 9.856,1.15 14.714,2.222 v 0 c -4.803,-1.276 -9.698,-2.268 -14.647,-2.852 v 0 l -3.71,-0.458 c -1.236,-0.165 -2.481,-0.22 -3.72,-0.336 v 0 c -2.483,-0.203 -4.969,-0.431 -7.459,-0.515 v 0 c -9.956,-0.511 -19.941,-0.523 -29.909,-0.095 v 0 c -9.97,0.429 -19.931,1.217 -29.86,2.498 v 0 l -3.724,0.49 c -1.241,0.165 -2.475,0.392 -3.716,0.585 v 0 l -3.716,0.605 c -1.238,0.213 -2.47,0.485 -3.706,0.726 v 0 c -1.235,0.253 -2.471,0.485 -3.706,0.754 v 0 l -3.692,0.922 -1.848,0.462 c -0.617,0.158 -1.226,0.379 -1.841,0.566 v 0 l -1.073,0.342 c -0.487,-0.939 -1.047,-1.852 -1.683,-2.733 v 0 -0.348 c 22.69,-7.324 49.407,-12.19 74.247,-13.456 v 0 c 25.746,-1.309 45.194,1.51 52.005,7.558 v 0 c 12.025,10.68 14.247,19.146 15.098,24.268 v 0 c -10.524,-3.181 -23.604,-6.04 -37.65,-8.099"
         id="path9590" />
    </clipPath>
    <clipPath
       clipPathUnits="userSpaceOnUse"
       id="clipPath9602">
      <path
         d="m 358.31543,272.55318 h 141.55539 v -33.136 H 358.31543 Z"
         id="path9600" />
    </clipPath>
    <linearGradient
       x1="0"
       y1="0"
       x2="1"
       y2="0"
       gradientUnits="userSpaceOnUse"
       gradientTransform="matrix(141.55539,0,0,-141.55539,358.31543,256.4831)"
       spreadMethod="pad"
       id="linearGradient9608">
      <stop
         style="stop-opacity:1;stop-color:#ffffff"
         offset="0"
         id="stop9604" />
      <stop
         style="stop-opacity:1;stop-color:#000000"
         offset="1"
         id="stop9606" />
    </linearGradient>
    <clipPath
       clipPathUnits="userSpaceOnUse"
       id="clipPath9618">
      <path
         d="m 546.155,388.895 c -6.088,-9.05 -21.511,-27.954 -51.42,-42.159 v 0 c -27.172,-21.019 -63.764,-38.475 -109.071,-52.01 v 0 c -0.188,-0.807 -0.419,-1.598 -0.688,-2.374 v 0 c 1.967,0.185 3.939,0.42 5.908,0.69 v 0 c 3.393,0.51 6.787,1.08 10.163,1.792 v 0 c 6.757,1.384 13.47,3.092 20.116,5.043 v 0 c 13.294,3.903 26.348,8.713 39.043,14.339 v 0 c 12.684,5.644 25.061,12.056 36.769,19.564 v 0 c 11.696,7.502 22.818,16.017 32.56,26.01 v 0 c -9.433,-10.284 -20.336,-19.172 -31.862,-27.066 v 0 c -11.54,-7.904 -23.796,-14.735 -36.405,-20.809 v 0 c -12.622,-6.057 -25.641,-11.31 -38.981,-15.668 v 0 c -6.67,-2.179 -13.428,-4.122 -20.286,-5.742 v 0 c -6.432,-1.516 -12.945,-2.773 -19.648,-3.399 v 0 c -0.578,-0.871 -1.2,-1.693 -1.863,-2.459 v 0 c 23.893,1.587 56.244,8.495 84.88,18.265 v 0 c 37.091,12.655 62.62,27.927 71.887,43.003 v 0 c 11.825,19.239 10.808,35.127 9.108,42.98 v 0 z"
         id="path9616" />
    </clipPath>
    <clipPath
       clipPathUnits="userSpaceOnUse"
       id="clipPath9628">
      <path
         d="M 380.39844,388.89494 H 549.10996 V 284.40982 H 380.39844 Z"
         id="path9626" />
    </clipPath>
    <linearGradient
       x1="0"
       y1="0"
       x2="1"
       y2="0"
       gradientUnits="userSpaceOnUse"
       gradientTransform="matrix(166.899,0,0,-166.899,380.39844,336.65238)"
       spreadMethod="pad"
       id="linearGradient9634">
      <stop
         style="stop-opacity:1;stop-color:#ffffff"
         offset="0"
         id="stop9630" />
      <stop
         style="stop-opacity:1;stop-color:#000000"
         offset="1"
         id="stop9632" />
    </linearGradient>
    <clipPath
       clipPathUnits="userSpaceOnUse"
       id="clipPath9644">
      <path
         d="m 321.377,221.371 c -0.744,-0.347 -1.539,-0.68 -2.384,-0.997 v 0 c -0.963,-3.9 -1.699,-7.956 -2.314,-12.011 v 0 c -0.676,-4.539 -1.197,-9.111 -1.554,-13.699 v 0 c -0.348,-4.588 -0.512,-9.193 -0.382,-13.796 v 0 c 0.163,-4.589 0.532,-9.224 1.954,-13.644 v 0 c -0.881,2.137 -1.599,4.369 -2.069,6.65 v 0 c -0.248,1.14 -0.498,2.28 -0.657,3.435 v 0 c -0.185,1.151 -0.377,2.304 -0.491,3.463 v 0 c -0.556,4.633 -0.815,9.301 -0.888,13.967 v 0 c -0.063,4.669 0.041,9.339 0.307,14.013 v 0 c 0.202,3.347 0.468,6.684 0.894,10.049 v 0 c -0.862,-0.207 -1.759,-0.404 -2.705,-0.586 v 0 c -1.962,-6.965 -9.725,-37.519 -2.123,-60.326 v 0 c 3.259,-9.779 14.717,-10.938 20.255,-10.908 v 0 c -3.07,9.992 -11.57,41.362 -6.77,68.518 v 0 c -0.151,1.912 -0.297,3.864 -0.43,5.872 v 0 z"
         id="path9642" />
    </clipPath>
    <clipPath
       clipPathUnits="userSpaceOnUse"
       id="clipPath9654">
      <path
         d="m 301.1184,221.38056 h 27.85681 V 146.6614 H 301.1184 Z"
         id="path9652" />
    </clipPath>
    <linearGradient
       x1="0"
       y1="0"
       x2="1"
       y2="0"
       gradientUnits="userSpaceOnUse"
       gradientTransform="matrix(23.527,0,0,-23.527,305.44821,184.03545)"
       spreadMethod="pad"
       id="linearGradient9660">
      <stop
         style="stop-opacity:1;stop-color:#ffffff"
         offset="0"
         id="stop9656" />
      <stop
         style="stop-opacity:1;stop-color:#000000"
         offset="1"
         id="stop9658" />
    </linearGradient>
    <clipPath
       clipPathUnits="userSpaceOnUse"
       id="clipPath9670">
      <path
         d="M 0,588 H 588 V 0 H 0 Z"
         id="path9668" />
    </clipPath>
    <clipPath
       clipPathUnits="userSpaceOnUse"
       id="clipPath9682">
      <path
         d="m 53.406,318.866 c 1.411,-8.155 8.172,-22.186 20.962,-32.844 v 0 c 5.873,-4.896 26.263,-12.225 57.149,-16.752 v 0 c 33.264,-4.876 68.075,-4.804 98.348,0.155 v 0 c -0.022,1.164 0.018,2.29 0.107,3.36 v 0 c -1.997,-0.417 -3.978,-0.7 -5.961,-0.954 v 0 c -3.248,-0.419 -6.481,-0.617 -9.711,-0.789 v 0 c -6.456,-0.281 -12.89,-0.227 -19.305,0.019 v 0 c -12.829,0.515 -25.593,1.776 -38.25,3.689 v 0 c -12.657,1.909 -25.223,4.443 -37.544,7.879 v 0 c -12.296,3.451 -24.456,7.691 -35.668,13.817 v 0 c 11.406,-5.749 23.644,-9.562 35.988,-12.591 v 0 c 12.365,-3.011 24.935,-5.115 37.559,-6.595 v 0 c 12.625,-1.482 25.326,-2.311 38,-2.399 v 0 c 6.335,-0.035 12.668,0.126 18.946,0.606 v 0 c 3.13,0.271 6.262,0.568 9.326,1.068 v 0 c 0.067,0.012 0.134,0.023 0.201,0.035 v 0 c -1.615,0.726 -3.316,1.623 -5,2.714 v 0 c -24.753,0.651 -61.042,8.009 -92.763,18.832 v 0 c -1.33,0.454 -2.724,0.94 -4.167,1.453 v 0 C 91.66,300.143 68.9,311.486 57.938,316.952 v 0 c -1.36,0.678 -2.743,1.367 -3.909,1.914 v 0 z"
         id="path9680" />
    </clipPath>
    <clipPath
       clipPathUnits="userSpaceOnUse"
       id="clipPath9692">
      <path
         d="M 230.10205,318.89109 H 53.48575 v -54.78302 h 176.6163 z"
         id="path9690" />
    </clipPath>
    <linearGradient
       x1="0"
       y1="0"
       x2="1"
       y2="0"
       gradientUnits="userSpaceOnUse"
       gradientTransform="matrix(-176.6163,0,0,-176.6163,230.10205,292.13284)"
       spreadMethod="pad"
       id="linearGradient9698">
      <stop
         style="stop-opacity:1;stop-color:#ffffff"
         offset="0"
         id="stop9694" />
      <stop
         style="stop-opacity:1;stop-color:#000000"
         offset="1"
         id="stop9696" />
    </linearGradient>
    <clipPath
       clipPathUnits="userSpaceOnUse"
       id="clipPath9708">
      <path
         d="m 256.531,239.821 c -3.527,-5.047 -7.143,-10.119 -10.964,-15.001 v 0 c -4.33,-5.544 -8.879,-10.928 -13.773,-15.985 v 0 c -4.899,-5.049 -10.093,-9.834 -15.78,-13.973 v 0 c -5.672,-4.133 -11.824,-7.693 -18.461,-9.903 v 0 c 6.49,2.608 12.343,6.495 17.683,10.901 v 0 c 5.352,4.414 10.173,9.429 14.683,14.678 v 0 c 4.509,5.26 8.657,10.821 12.581,16.528 v 0 c 2.164,3.14 4.231,6.329 6.263,9.557 v 0 c -7.998,-5.405 -17.437,-11.272 -27.44,-16.713 v 0 C 208.158,201.435 184.564,188.342 176.24,184.109 v 0 c 3.616,-3.502 12.844,-9.558 30.667,-4.878 v 0 c 21.416,5.622 46.309,50.027 50.97,58.654 v 0 c -0.32,0.675 -0.665,1.32 -1.05,1.936 v 0 z"
         id="path9706" />
    </clipPath>
    <clipPath
       clipPathUnits="userSpaceOnUse"
       id="clipPath9718">
      <path
         d="m 258.00488,239.82977 h -81.6364 v -65.49248 h 81.6364 z"
         id="path9716" />
    </clipPath>
    <linearGradient
       x1="0"
       y1="0"
       x2="1"
       y2="0"
       gradientUnits="userSpaceOnUse"
       gradientTransform="matrix(-81.636398,0,0,-81.636398,258.00488,208.56964)"
       spreadMethod="pad"
       id="linearGradient9724">
      <stop
         style="stop-opacity:1;stop-color:#ffffff"
         offset="0"
         id="stop9720" />
      <stop
         style="stop-opacity:1;stop-color:#000000"
         offset="1"
         id="stop9722" />
    </linearGradient>
    <clipPath
       clipPathUnits="userSpaceOnUse"
       id="clipPath9734">
      <path
         d="m 237.74,249.712 c -14.654,-4.851 -30.582,-8.541 -46.212,-10.992 v 0 c -11.16,-8.921 -52.534,-17.5 -65.617,-20.041 v 0 -0.154 c 3.284,-3.722 11.28,-10.112 29.021,-13.337 v 0 c 25.747,-4.681 72.595,22.559 96.417,39.386 v 0 c -1.06,0.484 -2.29,0.91 -3.736,1.272 v 0 c -0.269,0.066 -0.523,0.144 -0.783,0.217 v 0 c -7.26,-4.176 -14.732,-7.838 -22.338,-11.17 v 0 c -7.965,-3.479 -16.083,-6.576 -24.322,-9.28 v 0 c -8.24,-2.7 -16.605,-5.009 -25.079,-6.791 v 0 c -8.47,-1.777 -17.055,-3.04 -25.68,-3.457 v 0 c 8.595,0.838 17.069,2.514 25.391,4.69 v 0 c 8.323,2.181 16.497,4.875 24.519,7.944 v 0 c 8.02,3.076 15.889,6.529 23.565,10.338 v 0 c 6.232,3.1 12.351,6.434 18.242,10.06 v 0 c -0.723,0.411 -1.403,0.85 -2.043,1.315 v 0 z"
         id="path9732" />
    </clipPath>
    <clipPath
       clipPathUnits="userSpaceOnUse"
       id="clipPath9744">
      <path
         d="m 251.46631,249.71221 h -125.5551 v -49.51429 h 125.5551 z"
         id="path9742" />
    </clipPath>
    <linearGradient
       x1="0"
       y1="0"
       x2="1"
       y2="0"
       gradientUnits="userSpaceOnUse"
       gradientTransform="matrix(-125.5551,0,0,-125.5551,251.46631,227.02892)"
       spreadMethod="pad"
       id="linearGradient9750">
      <stop
         style="stop-opacity:1;stop-color:#ffffff"
         offset="0"
         id="stop9746" />
      <stop
         style="stop-opacity:1;stop-color:#000000"
         offset="1"
         id="stop9748" />
    </linearGradient>
    <clipPath
       clipPathUnits="userSpaceOnUse"
       id="clipPath9760">
      <path
         d="m 211.675,311.19 c 0.874,-0.613 1.272,-1.712 0.99,-2.743 v 0 c -1.957,-7.177 -1.357,-13.312 1.784,-18.233 v 0 c 5.887,-9.218 18.867,-11.517 18.995,-11.539 v 0 c 0.685,-0.115 1.293,-0.506 1.683,-1.084 v 0 c 0.389,-0.575 0.524,-1.286 0.373,-1.965 v 0 c -0.185,-0.833 -4.331,-20.445 13.343,-24.864 v 0 c 10.246,-2.562 12.692,-8.387 14.851,-13.527 v 0 c 2.052,-4.888 4.012,-9.556 12.949,-12.524 v 0 h 0.482 c -16.049,21.909 -9.513,31.557 -3.178,40.913 v 0 c 5.557,8.208 10.814,15.971 3.007,33.474 v 0 c -37.946,3.268 -79.171,39.853 -89.128,49.191 v 0 c 0.67,-7.142 6.498,-24.953 23.849,-37.099"
         id="path9758" />
    </clipPath>
    <clipPath
       clipPathUnits="userSpaceOnUse"
       id="clipPath9770">
      <path
         d="M 284.45359,348.49194 H 187.51894 V 224.71068 h 96.93465 z"
         id="path9768" />
    </clipPath>
    <linearGradient
       x1="0"
       y1="0"
       x2="1"
       y2="0"
       gradientUnits="userSpaceOnUse"
       gradientTransform="matrix(-93.075897,0,0,-93.075897,280.59484,286.60131)"
       spreadMethod="pad"
       id="linearGradient9776">
      <stop
         style="stop-opacity:1;stop-color:#ffffff"
         offset="0"
         id="stop9772" />
      <stop
         style="stop-opacity:1;stop-color:#000000"
         offset="1"
         id="stop9774" />
    </linearGradient>
    <clipPath
       clipPathUnits="userSpaceOnUse"
       id="clipPath9786">
      <path
         d="m 260.352,231.848 c -3.041,-5.431 -8.331,-14.421 -14.916,-23.737 v 0 C 243.884,187.624 225.663,163.81 219.05,155.787 v 0 -0.195 c 5.57,-2.105 18.071,-5.135 30.24,3.558 v 0 c 11.787,8.419 15.152,41.279 16.628,65.67 v 0 c -0.387,0.328 -0.751,0.662 -1.096,1 v 0 c -0.233,-1.263 -0.477,-2.521 -0.735,-3.784 v 0 c -0.665,-3.228 -1.414,-6.436 -2.252,-9.62 v 0 c -1.675,-6.366 -3.678,-12.648 -6.153,-18.746 v 0 c -1.221,-3.055 -2.597,-6.049 -4.094,-8.977 v 0 c -1.487,-2.933 -3.146,-5.782 -4.988,-8.503 v 0 c -3.632,-5.462 -8.147,-10.411 -13.575,-14.034 v 0 c 5.182,3.972 9.285,9.121 12.501,14.707 v 0 c 1.633,2.785 3.075,5.678 4.344,8.643 v 0 c 1.28,2.959 2.433,5.973 3.435,9.039 v 0 c 2.032,6.121 3.592,12.393 4.825,18.716 v 0 c 0.616,3.164 1.145,6.343 1.587,9.53 v 0 c 0.404,2.916 0.752,5.887 0.975,8.768 v 0 c -0.048,0.097 -0.096,0.193 -0.143,0.289 v 0 z"
         id="path9784" />
    </clipPath>
    <clipPath
       clipPathUnits="userSpaceOnUse"
       id="clipPath9796">
      <path
         d="m 266.04004,231.84833 h -46.99009 v -81.64378 h 46.99009 z"
         id="path9794" />
    </clipPath>
    <linearGradient
       x1="0"
       y1="0"
       x2="1"
       y2="0"
       gradientUnits="userSpaceOnUse"
       gradientTransform="matrix(-46.990799,0,0,-46.990799,266.04004,192.49025)"
       spreadMethod="pad"
       id="linearGradient9802">
      <stop
         style="stop-opacity:1;stop-color:#ffffff"
         offset="0"
         id="stop9798" />
      <stop
         style="stop-opacity:1;stop-color:#000000"
         offset="1"
         id="stop9800" />
    </linearGradient>
    <clipPath
       clipPathUnits="userSpaceOnUse"
       id="clipPath9812">
      <path
         d="M 94.258,513.144 C 85.33,504.681 74.314,488.174 73.391,476.15 v 0 c -1.062,-13.783 5.217,-40.715 26.398,-71.254 v 0 c 15.203,-21.921 42.716,-52.126 88.572,-74.631 v 0 0.259 c -1.408,2.759 -2.524,5.439 -3.374,7.933 v 0 c -4.916,2.419 -9.422,5.357 -13.68,8.557 v 0 c -4.57,3.433 -8.891,7.134 -13.047,10.992 v 0 c -8.292,7.734 -15.96,16.064 -23.072,24.826 v 0 c -7.104,8.768 -13.693,17.946 -19.543,27.577 v 0 c -5.799,9.643 -10.962,19.746 -14.376,30.462 v 0 c 3.814,-10.577 9.327,-20.423 15.447,-29.785 v 0 c 6.17,-9.347 13.05,-18.206 20.408,-26.62 v 0 c 7.364,-8.407 15.255,-16.352 23.672,-23.628 v 0 c 4.214,-3.629 8.571,-7.081 13.102,-10.226 v 0 c 3.027,-2.106 6.158,-4.051 9.37,-5.736 v 0 c -0.43,2.276 -0.579,4.209 -0.495,5.673 v 0 C 154.679,369.296 97.699,454.853 94.302,513.144 v 0 z"
         id="path9810" />
    </clipPath>
    <clipPath
       clipPathUnits="userSpaceOnUse"
       id="clipPath9822">
      <path
         d="M 188.3623,513.14404 H 72.153048 V 330.1385 H 188.3623 Z"
         id="path9820" />
    </clipPath>
    <linearGradient
       x1="0"
       y1="0"
       x2="1"
       y2="0"
       gradientUnits="userSpaceOnUse"
       gradientTransform="matrix(-115.2618,0,0,-115.2618,188.3623,421.64127)"
       spreadMethod="pad"
       id="linearGradient9828">
      <stop
         style="stop-opacity:1;stop-color:#ffffff"
         offset="0"
         id="stop9824" />
      <stop
         style="stop-opacity:1;stop-color:#000000"
         offset="1"
         id="stop9826" />
    </linearGradient>
    <clipPath
       clipPathUnits="userSpaceOnUse"
       id="clipPath9838">
      <path
         d="m 51.766,423.703 c 2.219,-15.049 10.492,-38.158 37.311,-62.797 v 0 c 27.061,-24.865 66.545,-45.272 117.398,-60.695 v 0 c -0.031,2.208 0.193,4.513 0.677,6.912 v 0 c -2.391,0.525 -4.664,1.205 -6.914,1.945 v 0 c -3.089,1.025 -6.121,2.141 -9.106,3.355 v 0 c -5.976,2.407 -11.817,5.072 -17.567,7.906 v 0 c -11.492,5.679 -22.628,12.02 -33.39,18.93 v 0 c -5.377,3.466 -10.64,7.101 -15.784,10.895 v 0 c -5.138,3.801 -10.168,7.75 -14.984,11.951 v 0 c -4.822,4.193 -9.465,8.59 -13.831,13.247 v 0 c -4.36,4.659 -8.449,9.582 -12.043,14.843 v 0 c 3.768,-5.138 8.005,-9.909 12.499,-14.402 v 0 c 4.498,-4.494 9.261,-8.71 14.187,-12.717 v 0 c 4.923,-4.015 10.05,-7.771 15.275,-11.375 v 0 c 5.232,-3.596 10.573,-7.03 16.018,-10.289 v 0 c 10.899,-6.499 22.144,-12.417 33.678,-17.646 v 0 c 5.768,-2.609 11.61,-5.045 17.527,-7.202 v 0 c 2.561,-0.945 5.146,-1.795 7.735,-2.586 v 0 c -2.711,2.684 -5.054,5.486 -7.074,8.307 v 0 c -38.624,17.545 -65.3,40.576 -83.088,60.947 v 0 c -17.288,15.962 -44.765,55.809 -52.505,73.432 v 0 c -4.936,-5.593 -8.277,-17.648 -6.019,-32.961"
         id="path9836" />
    </clipPath>
    <clipPath
       clipPathUnits="userSpaceOnUse"
       id="clipPath9848">
      <path
         d="M 207.49463,457.09274 H 49.849223 V 300.63864 H 207.49463 Z"
         id="path9846" />
    </clipPath>
    <linearGradient
       x1="0"
       y1="0"
       x2="1"
       y2="0"
       gradientUnits="userSpaceOnUse"
       gradientTransform="matrix(-156.1062,0,0,-156.10629,207.49463,378.86569)"
       spreadMethod="pad"
       id="linearGradient9854">
      <stop
         style="stop-opacity:1;stop-color:#ffffff"
         offset="0"
         id="stop9850" />
      <stop
         style="stop-opacity:1;stop-color:#000000"
         offset="1"
         id="stop9852" />
    </linearGradient>
    <clipPath
       clipPathUnits="userSpaceOnUse"
       id="clipPath9864">
      <path
         d="m 108.23,248.086 c 6.81,-6.048 26.259,-8.867 52.005,-7.558 v 0 c 24.764,1.262 51.392,6.103 74.039,13.39 v 0 0.707 c -0.551,0.789 -1.043,1.605 -1.476,2.44 v 0 l -1.074,-0.342 c -0.613,-0.187 -1.223,-0.408 -1.839,-0.566 v 0 l -1.848,-0.462 -3.692,-0.922 c -1.235,-0.269 -2.471,-0.501 -3.706,-0.754 v 0 c -1.237,-0.241 -2.468,-0.513 -3.706,-0.726 v 0 l -3.716,-0.605 c -1.24,-0.193 -2.475,-0.42 -3.716,-0.585 v 0 l -3.725,-0.49 c -9.928,-1.281 -19.89,-2.069 -29.859,-2.498 v 0 c -9.969,-0.428 -19.953,-0.416 -29.909,0.095 v 0 c -2.49,0.084 -4.976,0.312 -7.458,0.515 v 0 c -1.241,0.116 -2.485,0.171 -3.722,0.336 v 0 l -3.71,0.458 c -4.948,0.584 -9.844,1.576 -14.645,2.852 v 0 c 4.856,-1.072 9.762,-1.851 14.714,-2.222 v 0 l 3.708,-0.298 c 1.235,-0.113 2.479,-0.115 3.717,-0.178 v 0 c 2.477,-0.097 4.954,-0.22 7.436,-0.198 v 0 c 9.917,-0.086 19.836,0.323 29.712,1.169 v 0 c 9.872,0.846 19.713,2.048 29.447,3.728 v 0 l 3.646,0.637 c 1.215,0.216 2.417,0.488 3.624,0.729 v 0 l 3.617,0.748 c 1.202,0.259 2.386,0.575 3.58,0.861 v 0 c 1.19,0.296 2.386,0.575 3.568,0.884 v 0 l 3.502,1.036 1.75,0.516 c 0.582,0.174 1.133,0.405 1.699,0.605 v 0 l 0.796,0.289 c -0.254,0.897 -0.467,1.798 -0.63,2.696 v 0 c -15.462,-2.513 -32.062,-3.787 -49.047,-3.787 v 0 c -16.735,0 -33.83,1.221 -50.529,3.669 v 0 c -14.049,2.059 -27.126,4.918 -37.651,8.099 v 0 c 0.85,-5.122 3.074,-13.588 15.098,-24.268"
         id="path9862" />
    </clipPath>
    <clipPath
       clipPathUnits="userSpaceOnUse"
       id="clipPath9874">
      <path
         d="M 234.27295,272.57845 H 92.71755 v -33.136 h 141.5554 z"
         id="path9872" />
    </clipPath>
    <linearGradient
       x1="0"
       y1="0"
       x2="1"
       y2="0"
       gradientUnits="userSpaceOnUse"
       gradientTransform="matrix(-141.5554,0,0,-141.55539,234.27295,256.50837)"
       spreadMethod="pad"
       id="linearGradient9880">
      <stop
         style="stop-opacity:1;stop-color:#ffffff"
         offset="0"
         id="stop9876" />
      <stop
         style="stop-opacity:1;stop-color:#000000"
         offset="1"
         id="stop9878" />
    </linearGradient>
    <clipPath
       clipPathUnits="userSpaceOnUse"
       id="clipPath9890">
      <path
         d="m 46.459,389.02 c -1.715,-7.808 -2.807,-23.763 9.081,-43.105 v 0 c 9.265,-15.076 34.796,-30.348 71.886,-43.003 v 0 c 28.637,-9.77 60.987,-16.678 84.88,-18.265 v 0 c -0.661,0.766 -1.283,1.588 -1.863,2.459 v 0 c -6.703,0.626 -13.215,1.883 -19.648,3.399 v 0 c -6.858,1.62 -13.615,3.563 -20.285,5.742 v 0 c -13.339,4.358 -26.359,9.611 -38.98,15.668 v 0 c -12.609,6.074 -24.866,12.905 -36.406,20.809 v 0 c -11.527,7.894 -22.427,16.782 -31.862,27.066 v 0 c 9.741,-9.993 20.865,-18.508 32.56,-26.01 v 0 c 11.708,-7.508 24.084,-13.92 36.769,-19.564 v 0 c 12.694,-5.626 25.749,-10.436 39.043,-14.339 v 0 c 6.645,-1.951 13.357,-3.659 20.116,-5.043 v 0 c 3.376,-0.713 6.769,-1.282 10.161,-1.793 v 0 c 1.971,-0.269 3.942,-0.504 5.911,-0.689 v 0 c -0.271,0.776 -0.502,1.567 -0.691,2.374 v 0 c -45.306,13.535 -81.898,30.991 -109.07,52.01 v 0 C 68.015,361.007 52.586,380.02 46.558,389.02 v 0 z"
         id="path9888" />
    </clipPath>
    <clipPath
       clipPathUnits="userSpaceOnUse"
       id="clipPath9900">
      <path
         d="M 212.32617,389.01994 H 43.614647 V 284.53482 H 212.32617 Z"
         id="path9898" />
    </clipPath>
    <linearGradient
       x1="0"
       y1="0"
       x2="1"
       y2="0"
       gradientUnits="userSpaceOnUse"
       gradientTransform="matrix(-166.899,0,0,-166.899,212.32617,336.77738)"
       spreadMethod="pad"
       id="linearGradient9906">
      <stop
         style="stop-opacity:1;stop-color:#ffffff"
         offset="0"
         id="stop9902" />
      <stop
         style="stop-opacity:1;stop-color:#000000"
         offset="1"
         id="stop9904" />
    </linearGradient>
    <clipPath
       clipPathUnits="userSpaceOnUse"
       id="clipPath9916">
      <path
         d="m 270.777,221.386 c -0.134,-2.014 -0.279,-3.971 -0.431,-5.887 v 0 c 4.801,-27.156 -3.699,-58.526 -6.769,-68.518 v 0 c 5.537,-0.03 16.995,1.129 20.254,10.908 v 0 c 7.603,22.807 -0.16,53.361 -2.121,60.326 v 0 c -0.946,0.182 -1.842,0.379 -2.706,0.586 v 0 c 0.424,-3.365 0.693,-6.702 0.892,-10.049 v 0 c 0.268,-4.674 0.373,-9.344 0.308,-14.013 v 0 c -0.071,-4.667 -0.332,-9.334 -0.886,-13.967 v 0 c -0.115,-1.159 -0.308,-2.312 -0.493,-3.463 v 0 c -0.158,-1.155 -0.408,-2.295 -0.656,-3.435 v 0 c -0.47,-2.281 -1.189,-4.513 -2.069,-6.65 v 0 c 1.421,4.42 1.79,9.055 1.954,13.644 v 0 c 0.13,4.603 -0.034,9.208 -0.383,13.796 v 0 c -0.356,4.588 -0.876,9.16 -1.555,13.699 v 0 c -0.613,4.055 -1.35,8.111 -2.313,12.011 v 0 c -0.856,0.322 -1.66,0.659 -2.414,1.012 v 0 z"
         id="path9914" />
    </clipPath>
    <clipPath
       clipPathUnits="userSpaceOnUse"
       id="clipPath9926">
      <path
         d="m 291.67897,221.3952 h -27.85681 v -74.71916 h 27.85681 z"
         id="path9924" />
    </clipPath>
    <linearGradient
       x1="0"
       y1="0"
       x2="1"
       y2="0"
       gradientUnits="userSpaceOnUse"
       gradientTransform="matrix(-23.527,0,0,-23.527,287.34916,184.05009)"
       spreadMethod="pad"
       id="linearGradient9932">
      <stop
         style="stop-opacity:1;stop-color:#ffffff"
         offset="0"
         id="stop9928" />
      <stop
         style="stop-opacity:1;stop-color:#000000"
         offset="1"
         id="stop9930" />
    </linearGradient>
    <clipPath
       clipPathUnits="userSpaceOnUse"
       id="clipPath9942">
      <path
         d="M 0,588 H 588 V 0 H 0 Z"
         id="path9940" />
    </clipPath>
  </defs>
  <sodipodi:namedview
     id="namedview9362"
     pagecolor="#ffffff"
     bordercolor="#000000"
     borderopacity="0.25"
     inkscape:showpageshadow="2"
     inkscape:pageopacity="0.0"
     inkscape:pagecheckerboard="0"
     inkscape:deskcolor="#d1d1d1"
     showgrid="false"
     inkscape:zoom="1.067602"
     inkscape:cx="392.93668"
     inkscape:cy="392.46834"
     inkscape:window-width="1920"
     inkscape:window-height="1017"
     inkscape:window-x="-8"
     inkscape:window-y="-8"
     inkscape:window-maximized="1"
     inkscape:current-layer="g9368">
    <inkscape:page
       x="0"
       y="0"
       id="page9366"
       width="784"
       height="784" />
  </sodipodi:namedview>
  <g
     id="g9368"
     inkscape:groupmode="layer"
     inkscape:label="Page 1"
     transform="matrix(1.3333333,0,0,-1.3333333,0,784)">
    <g
       id="g9370">
      <g
         id="g9372"
         clip-path="url(#clipPath9376)">
        <g
           id="g9378">
          <g
             id="g9380"
             clip-path="url(#clipPath9384)">
            <g
               id="g9386">
              <g
                 id="g9388">
                <g
                   id="g9390"
                   clip-path="url(#clipPath9394)">
                  <path
                     d="m 535.084,55.65 h 0.416 v -0.416 h -0.416 z"
                     style="fill:url(#linearGradient9400);stroke:none"
                     id="path9402" />
                </g>
              </g>
            </g>
          </g>
        </g>
      </g>
    </g>
    <g
       id="g9404">
      <g
         id="g9406"
         clip-path="url(#clipPath9410)">
        <g
           id="g9412">
          <g
             id="g9414">
            <g
               id="g9416"
               clip-path="url(#clipPath9420)">
              <path
                 d="m 538.504,318.742 c -1.108,-0.526 -2.387,-1.163 -3.646,-1.79 v 0 c -10.963,-5.466 -33.721,-16.809 -63.686,-17.383 v 0 c -1.441,-0.513 -2.836,-0.999 -4.166,-1.453 v 0 c -31.72,-10.823 -68.009,-18.181 -92.763,-18.832 v 0 c -1.684,-1.091 -3.384,-1.988 -5,-2.714 v 0 c 0.068,-0.012 0.135,-0.023 0.202,-0.035 v 0 c 3.064,-0.5 6.194,-0.797 9.325,-1.068 v 0 c 6.278,-0.48 12.611,-0.641 18.948,-0.606 v 0 c 12.674,0.088 25.375,0.917 37.999,2.399 v 0 c 12.625,1.48 25.194,3.584 37.56,6.595 v 0 c 12.342,3.029 24.582,6.842 35.987,12.591 v 0 C 498.052,290.32 485.892,286.08 473.597,282.629 v 0 c -12.323,-3.436 -24.888,-5.97 -37.545,-7.879 v 0 c -12.659,-1.913 -25.423,-3.174 -38.251,-3.689 v 0 c -6.415,-0.246 -12.848,-0.3 -19.304,-0.019 v 0 c -3.229,0.172 -6.463,0.37 -9.712,0.789 v 0 c -1.981,0.255 -3.963,0.537 -5.96,0.954 v 0 c 0.087,-1.07 0.128,-2.196 0.106,-3.36 v 0 c 30.275,-4.959 65.086,-5.031 98.349,-0.155 v 0 c 30.886,4.527 51.275,11.856 57.149,16.752 v 0 c 12.724,10.605 19.482,24.547 20.938,32.72 v 0 z"
                 style="fill:url(#linearGradient9426);stroke:none"
                 id="path9428" />
            </g>
          </g>
        </g>
      </g>
    </g>
    <g
       id="g9430">
      <g
         id="g9432"
         clip-path="url(#clipPath9436)">
        <g
           id="g9438">
          <g
             id="g9440">
            <g
               id="g9442"
               clip-path="url(#clipPath9446)">
              <path
                 d="m 335.93,239.758 c -0.368,-0.597 -0.699,-1.221 -1.01,-1.873 v 0 c 4.661,-8.627 29.553,-53.032 50.969,-58.654 v 0 c 17.824,-4.68 27.052,1.376 30.667,4.878 v 0 c -8.323,4.233 -31.919,17.326 -45.081,35.801 v 0 c -10.004,5.441 -19.444,11.308 -27.441,16.713 v 0 c 2.031,-3.227 4.098,-6.417 6.263,-9.557 v 0 c 3.925,-5.707 8.073,-11.268 12.58,-16.528 v 0 c 4.512,-5.249 9.332,-10.264 14.684,-14.678 v 0 c 5.339,-4.406 11.192,-8.293 17.683,-10.901 v 0 c -6.637,2.21 -12.789,5.77 -18.462,9.903 v 0 c -5.686,4.139 -10.882,8.924 -15.779,13.973 v 0 c -4.896,5.057 -9.443,10.441 -13.772,15.985 v 0 c -3.806,4.862 -7.407,9.912 -10.921,14.938 v 0 z"
                 style="fill:url(#linearGradient9452);stroke:none"
                 id="path9454" />
            </g>
          </g>
        </g>
      </g>
    </g>
    <g
       id="g9456">
      <g
         id="g9458"
         clip-path="url(#clipPath9462)">
        <g
           id="g9464">
          <g
             id="g9466">
            <g
               id="g9468"
               clip-path="url(#clipPath9472)">
              <path
                 d="m 353.553,249.598 c -0.593,-0.423 -1.221,-0.823 -1.885,-1.201 v 0 c 5.894,-3.626 12.01,-6.959 18.244,-10.06 v 0 c 7.676,-3.809 15.544,-7.262 23.563,-10.337 v 0 c 8.021,-3.07 16.196,-5.764 24.521,-7.945 v 0 c 8.32,-2.176 16.796,-3.852 25.39,-4.69 v 0 c -8.626,0.417 -17.21,1.68 -25.681,3.457 v 0 c -8.471,1.783 -16.838,4.091 -25.078,6.791 v 0 c -8.241,2.704 -16.357,5.801 -24.323,9.28 v 0 c -7.606,3.332 -15.077,6.994 -22.337,11.17 v 0 c -0.261,-0.073 -0.515,-0.151 -0.784,-0.217 v 0 c -1.445,-0.362 -2.675,-0.788 -3.736,-1.272 v 0 c 23.822,-16.827 70.671,-44.067 96.417,-39.386 v 0 c 17.318,3.15 25.351,9.313 28.779,13.066 v 0 0.472 c -13.345,2.599 -54.283,11.128 -65.374,19.994 v 0 c -15.507,2.432 -31.307,6.083 -45.866,10.878 v 0 z"
                 style="fill:url(#linearGradient9478);stroke:none"
                 id="path9480" />
            </g>
          </g>
        </g>
      </g>
    </g>
    <g
       id="g9482">
      <g
         id="g9484"
         clip-path="url(#clipPath9488)">
        <g
           id="g9490">
          <g
             id="g9492">
            <g
               id="g9494"
               clip-path="url(#clipPath9498)">
              <path
                 d="m 315.842,299.098 c -7.806,-17.502 -2.549,-25.266 3.007,-33.474 v 0 c 6.341,-9.364 12.881,-19.019 -3.215,-40.965 v 0 h 0.362 c 9.072,2.965 11.044,7.659 13.108,12.576 v 0 c 2.158,5.14 4.604,10.965 14.85,13.527 v 0 c 17.673,4.419 13.529,24.031 13.343,24.864 v 0 c -0.151,0.679 -0.016,1.39 0.373,1.966 v 0 c 0.39,0.577 0.999,0.969 1.685,1.083 v 0 c 0.126,0.022 13.105,2.321 18.991,11.539 v 0 c 3.142,4.922 3.742,11.056 1.786,18.234 v 0 c -0.283,1.031 0.114,2.129 0.99,2.742 v 0 c 17.351,12.146 23.178,29.957 23.848,37.099 v 0 c -9.956,-9.338 -51.181,-45.923 -89.128,-49.191"
                 style="fill:url(#linearGradient9504);stroke:none"
                 id="path9506" />
            </g>
          </g>
        </g>
      </g>
    </g>
    <g
       id="g9508">
      <g
         id="g9510"
         clip-path="url(#clipPath9514)">
        <g
           id="g9516">
          <g
             id="g9518">
            <g
               id="g9520"
               clip-path="url(#clipPath9524)">
              <path
                 d="m 332.233,231.818 c -0.043,-0.086 -0.086,-0.172 -0.129,-0.259 v 0 c 0.224,-2.881 0.572,-5.852 0.974,-8.768 v 0 c 0.445,-3.187 0.973,-6.366 1.589,-9.53 v 0 c 1.233,-6.323 2.792,-12.595 4.826,-18.716 v 0 c 1,-3.066 2.153,-6.08 3.434,-9.039 v 0 c 1.269,-2.965 2.711,-5.858 4.343,-8.643 v 0 c 3.217,-5.585 7.32,-10.735 12.501,-14.707 v 0 c -5.427,3.623 -9.941,8.573 -13.574,14.034 v 0 c -1.842,2.722 -3.5,5.57 -4.988,8.503 v 0 c -1.497,2.928 -2.873,5.922 -4.094,8.977 v 0 c -2.475,6.098 -4.479,12.38 -6.154,18.746 v 0 c -0.838,3.184 -1.586,6.392 -2.251,9.62 v 0 c -0.259,1.264 -0.502,2.523 -0.736,3.784 v 0 c -0.343,-0.338 -0.707,-0.672 -1.096,-1 v 0 c 1.476,-24.391 4.841,-57.251 16.629,-65.67 v 0 c 12.157,-8.686 24.648,-5.668 30.225,-3.563 v 0 0.218 c -6.625,8.038 -24.82,31.832 -26.373,52.306 v 0 c -6.57,9.298 -11.854,18.273 -14.897,23.707 v 0 z"
                 style="fill:url(#linearGradient9530);stroke:none"
                 id="path9532" />
            </g>
          </g>
        </g>
      </g>
    </g>
    <g
       id="g9534">
      <g
         id="g9536"
         clip-path="url(#clipPath9540)">
        <g
           id="g9542">
          <g
             id="g9544">
            <g
               id="g9546"
               clip-path="url(#clipPath9550)">
              <path
                 d="M 498.498,513.182 C 495.125,454.89 438.124,369.301 410.024,350.549 v 0 c 0.084,-1.464 -0.065,-3.397 -0.494,-5.673 v 0 c 3.21,1.685 6.342,3.63 9.369,5.736 v 0 c 4.532,3.145 8.888,6.597 13.103,10.226 v 0 c 8.416,7.276 16.307,15.221 23.671,23.628 v 0 c 7.358,8.414 14.237,17.273 20.408,26.62 v 0 c 6.118,9.362 11.633,19.208 15.448,29.785 v 0 c -3.414,-10.716 -8.579,-20.819 -14.377,-30.462 v 0 c -5.851,-9.631 -12.439,-18.809 -19.544,-27.577 v 0 c -7.111,-8.762 -14.78,-17.092 -23.073,-24.826 v 0 c -4.153,-3.858 -8.474,-7.559 -13.046,-10.992 v 0 c -4.255,-3.2 -8.763,-6.138 -13.679,-8.557 v 0 c -0.874,-2.566 -2.031,-5.327 -3.497,-8.17 v 0 -0.082 c 45.929,22.512 73.478,52.752 88.694,74.691 v 0 c 21.183,30.539 27.459,57.471 26.399,71.254 v 0 c -0.926,12.042 -11.972,28.58 -20.907,37.032 v 0 z"
                 style="fill:url(#linearGradient9556);stroke:none"
                 id="path9558" />
            </g>
          </g>
        </g>
      </g>
    </g>
    <g
       id="g9560">
      <g
         id="g9562"
         clip-path="url(#clipPath9566)">
        <g
           id="g9568">
          <g
             id="g9570">
            <g
               id="g9572"
               clip-path="url(#clipPath9576)">
              <path
                 d="M 482.507,383.232 C 464.719,362.861 438.043,339.83 399.419,322.285 v 0 c -2.02,-2.821 -4.363,-5.623 -7.075,-8.307 v 0 c 2.589,0.791 5.174,1.641 7.735,2.586 v 0 c 5.917,2.157 11.761,4.593 17.527,7.202 v 0 c 11.534,5.229 22.779,11.147 33.678,17.646 v 0 c 5.445,3.259 10.786,6.693 16.018,10.289 v 0 c 5.226,3.604 10.352,7.361 15.274,11.375 v 0 c 4.929,4.007 9.691,8.223 14.189,12.717 v 0 c 4.494,4.493 8.732,9.264 12.499,14.402 v 0 c -3.595,-5.261 -7.683,-10.184 -12.044,-14.843 v 0 c -4.364,-4.657 -9.008,-9.054 -13.83,-13.247 v 0 c -4.815,-4.201 -9.845,-8.15 -14.984,-11.951 v 0 c -5.144,-3.794 -10.408,-7.429 -15.784,-10.895 v 0 c -10.763,-6.91 -21.897,-13.251 -33.39,-18.93 v 0 c -5.75,-2.834 -11.591,-5.499 -17.567,-7.906 v 0 c -2.984,-1.214 -6.018,-2.33 -9.106,-3.355 v 0 c -2.252,-0.74 -4.523,-1.42 -6.914,-1.945 v 0 c 0.484,-2.398 0.709,-4.704 0.675,-6.911 v 0 c 50.855,15.422 90.339,35.829 117.401,60.694 v 0 c 26.818,24.639 35.09,47.748 37.31,62.797 v 0 c 2.258,15.313 -1.084,27.368 -6.02,32.961 v 0 c -7.739,-17.623 -35.218,-57.47 -52.504,-73.432"
                 style="fill:url(#linearGradient9582);stroke:none"
                 id="path9584" />
            </g>
          </g>
        </g>
      </g>
    </g>
    <g
       id="g9586">
      <g
         id="g9588"
         clip-path="url(#clipPath9592)">
        <g
           id="g9594">
          <g
             id="g9596">
            <g
               id="g9598"
               clip-path="url(#clipPath9602)">
              <path
                 d="m 462.015,264.255 c -16.7,-2.448 -33.795,-3.669 -50.531,-3.669 v 0 c -16.984,0 -33.584,1.274 -49.047,3.787 v 0 c -0.162,-0.898 -0.374,-1.799 -0.63,-2.696 v 0 l 0.797,-0.289 c 0.566,-0.2 1.117,-0.431 1.7,-0.605 v 0 l 1.748,-0.516 3.502,-1.036 c 1.184,-0.309 2.381,-0.588 3.569,-0.884 v 0 c 1.193,-0.286 2.378,-0.602 3.579,-0.861 v 0 l 3.617,-0.748 c 1.208,-0.241 2.41,-0.513 3.624,-0.729 v 0 l 3.647,-0.637 c 9.733,-1.68 19.574,-2.882 29.448,-3.728 v 0 c 9.874,-0.846 19.793,-1.254 29.711,-1.169 v 0 c 2.483,-0.022 4.958,0.101 7.438,0.198 v 0 c 1.235,0.063 2.48,0.065 3.714,0.178 v 0 l 3.71,0.298 c 4.951,0.371 9.856,1.15 14.714,2.222 v 0 c -4.803,-1.276 -9.698,-2.268 -14.647,-2.852 v 0 l -3.71,-0.458 c -1.236,-0.165 -2.481,-0.22 -3.72,-0.336 v 0 c -2.483,-0.203 -4.969,-0.431 -7.459,-0.515 v 0 c -9.956,-0.511 -19.941,-0.523 -29.909,-0.095 v 0 c -9.97,0.429 -19.931,1.217 -29.86,2.498 v 0 l -3.724,0.49 c -1.241,0.165 -2.475,0.392 -3.716,0.585 v 0 l -3.716,0.605 c -1.238,0.213 -2.47,0.485 -3.706,0.726 v 0 c -1.235,0.253 -2.471,0.485 -3.706,0.754 v 0 l -3.692,0.922 -1.848,0.462 c -0.617,0.158 -1.226,0.379 -1.841,0.566 v 0 l -1.073,0.342 c -0.487,-0.939 -1.047,-1.852 -1.683,-2.733 v 0 -0.348 c 22.69,-7.324 49.407,-12.19 74.247,-13.456 v 0 c 25.746,-1.309 45.194,1.51 52.005,7.558 v 0 c 12.025,10.68 14.247,19.146 15.098,24.268 v 0 c -10.524,-3.181 -23.604,-6.04 -37.65,-8.099"
                 style="fill:url(#linearGradient9608);stroke:none"
                 id="path9610" />
            </g>
          </g>
        </g>
      </g>
    </g>
    <g
       id="g9612">
      <g
         id="g9614"
         clip-path="url(#clipPath9618)">
        <g
           id="g9620">
          <g
             id="g9622">
            <g
               id="g9624"
               clip-path="url(#clipPath9628)">
              <path
                 d="m 546.155,388.895 c -6.088,-9.05 -21.511,-27.954 -51.42,-42.159 v 0 c -27.172,-21.019 -63.764,-38.475 -109.071,-52.01 v 0 c -0.188,-0.807 -0.419,-1.598 -0.688,-2.374 v 0 c 1.967,0.185 3.939,0.42 5.908,0.69 v 0 c 3.393,0.51 6.787,1.08 10.163,1.792 v 0 c 6.757,1.384 13.47,3.092 20.116,5.043 v 0 c 13.294,3.903 26.348,8.713 39.043,14.339 v 0 c 12.684,5.644 25.061,12.056 36.769,19.564 v 0 c 11.696,7.502 22.818,16.017 32.56,26.01 v 0 c -9.433,-10.284 -20.336,-19.172 -31.862,-27.066 v 0 c -11.54,-7.904 -23.796,-14.735 -36.405,-20.809 v 0 c -12.622,-6.057 -25.641,-11.31 -38.981,-15.668 v 0 c -6.67,-2.179 -13.428,-4.122 -20.286,-5.742 v 0 c -6.432,-1.516 -12.945,-2.773 -19.648,-3.399 v 0 c -0.578,-0.871 -1.2,-1.693 -1.863,-2.459 v 0 c 23.893,1.587 56.244,8.495 84.88,18.265 v 0 c 37.091,12.655 62.62,27.927 71.887,43.003 v 0 c 11.825,19.239 10.808,35.127 9.108,42.98 v 0 z"
                 style="fill:url(#linearGradient9634);stroke:none"
                 id="path9636" />
            </g>
          </g>
        </g>
      </g>
    </g>
    <g
       id="g9638">
      <g
         id="g9640"
         clip-path="url(#clipPath9644)">
        <g
           id="g9646">
          <g
             id="g9648">
            <g
               id="g9650"
               clip-path="url(#clipPath9654)">
              <path
                 d="m 321.377,221.371 c -0.744,-0.347 -1.539,-0.68 -2.384,-0.997 v 0 c -0.963,-3.9 -1.699,-7.956 -2.314,-12.011 v 0 c -0.676,-4.539 -1.197,-9.111 -1.554,-13.699 v 0 c -0.348,-4.588 -0.512,-9.193 -0.382,-13.796 v 0 c 0.163,-4.589 0.532,-9.224 1.954,-13.644 v 0 c -0.881,2.137 -1.599,4.369 -2.069,6.65 v 0 c -0.248,1.14 -0.498,2.28 -0.657,3.435 v 0 c -0.185,1.151 -0.377,2.304 -0.491,3.463 v 0 c -0.556,4.633 -0.815,9.301 -0.888,13.967 v 0 c -0.063,4.669 0.041,9.339 0.307,14.013 v 0 c 0.202,3.347 0.468,6.684 0.894,10.049 v 0 c -0.862,-0.207 -1.759,-0.404 -2.705,-0.586 v 0 c -1.962,-6.965 -9.725,-37.519 -2.123,-60.326 v 0 c 3.259,-9.779 14.717,-10.938 20.255,-10.908 v 0 c -3.07,9.992 -11.57,41.362 -6.77,68.518 v 0 c -0.151,1.912 -0.297,3.864 -0.43,5.872 v 0 z"
                 style="fill:url(#linearGradient9660);stroke:none"
                 id="path9662" />
            </g>
          </g>
        </g>
      </g>
    </g>
    <g
       id="g9664">
      <g
         id="g9666"
         clip-path="url(#clipPath9670)">
        <g
           id="g9672"
           transform="translate(341.4463,244.5742)">
          <path
             d="M 0,0 C 1.061,0.484 2.292,0.91 3.737,1.271 4.005,1.338 4.26,1.416 4.521,1.489 11.78,-2.688 19.252,-6.35 26.858,-9.682 c 7.966,-3.478 16.082,-6.575 24.323,-9.279 8.24,-2.7 16.606,-5.008 25.078,-6.792 8.47,-1.776 17.055,-3.04 25.68,-3.457 -8.593,0.839 -17.069,2.515 -25.39,4.69 -8.322,2.182 -16.499,4.875 -24.52,7.946 -8.019,3.074 -15.887,6.528 -23.564,10.337 -6.233,3.1 -12.351,6.434 -18.243,10.06 0.882,0.501 1.701,1.044 2.46,1.624 14.909,-5.004 31.179,-8.798 47.14,-11.301 11.193,-8.947 52.779,-17.55 65.734,-20.063 -3.211,-3.701 -11.185,-10.204 -29.138,-13.469 C 70.672,-44.066 23.823,-16.827 0,0 m -6.526,-6.688 c 0.36,0.755 0.749,1.475 1.19,2.158 3.577,-5.12 7.242,-10.271 11.12,-15.224 4.329,-5.543 8.877,-10.928 13.773,-15.986 4.898,-5.047 10.092,-9.834 15.779,-13.973 5.672,-4.133 11.824,-7.691 18.462,-9.902 -6.491,2.608 -12.343,6.495 -17.684,10.901 -5.351,4.414 -10.172,9.429 -14.683,14.678 -4.507,5.261 -8.656,10.821 -12.58,16.528 -2.165,3.14 -4.232,6.33 -6.263,9.557 7.997,-5.405 17.437,-11.274 27.44,-16.714 13.163,-18.473 36.758,-31.567 45.082,-35.8 -3.616,-3.503 -12.843,-9.557 -30.667,-4.879 -21.415,5.622 -46.308,50.028 -50.969,58.656 m -6.946,-12.066 c 0.234,-1.262 0.477,-2.52 0.736,-3.784 0.665,-3.229 1.414,-6.437 2.251,-9.62 1.675,-6.365 3.678,-12.648 6.154,-18.746 1.221,-3.055 2.597,-6.049 4.094,-8.977 1.487,-2.932 3.146,-5.781 4.988,-8.503 3.633,-5.461 8.146,-10.411 13.573,-14.035 -5.181,3.973 -9.283,9.123 -12.501,14.708 -1.632,2.785 -3.073,5.677 -4.343,8.643 -1.28,2.96 -2.433,5.973 -3.433,9.04 -2.034,6.12 -3.594,12.391 -4.826,18.716 -0.617,3.163 -1.145,6.342 -1.588,9.529 -0.404,2.917 -0.751,5.888 -0.976,8.767 0.081,0.161 0.159,0.32 0.236,0.48 3.023,-5.411 8.36,-14.503 15.02,-23.927 1.564,-20.617 20.002,-44.599 26.51,-52.472 -5.508,-2.106 -18.104,-5.247 -30.362,3.51 -11.788,8.42 -15.153,41.28 -16.628,65.671 0.387,0.328 0.752,0.662 1.095,1 m -16.887,-7.605 c 0.946,0.181 1.843,0.379 2.707,0.587 -0.426,-3.367 -0.694,-6.703 -0.894,-10.05 -0.268,-4.674 -0.371,-9.345 -0.307,-14.013 0.071,-4.666 0.331,-9.334 0.886,-13.966 0.114,-1.159 0.308,-2.313 0.492,-3.465 0.159,-1.153 0.409,-2.294 0.657,-3.434 0.469,-2.281 1.188,-4.512 2.068,-6.651 -1.421,4.421 -1.79,9.055 -1.953,13.646 -0.13,4.603 0.033,9.208 0.383,13.795 0.355,4.588 0.877,9.161 1.553,13.698 0.615,4.056 1.351,8.113 2.314,12.012 1.086,0.408 2.087,0.842 3.007,1.297 0.139,-2.115 0.292,-4.165 0.45,-6.172 -4.801,-27.156 3.7,-58.526 6.769,-68.519 -5.537,-0.028 -16.995,1.13 -20.253,10.909 -7.603,22.806 0.16,53.361 2.121,60.326 M 39.676,66.616 C 38.801,66.003 38.403,64.905 38.685,63.874 40.642,56.696 40.042,50.561 36.9,45.641 31.015,36.422 18.034,34.122 17.908,34.101 17.222,33.986 16.613,33.595 16.224,33.019 15.835,32.441 15.7,31.73 15.851,31.052 16.036,30.219 20.181,10.607 2.508,6.187 -7.738,3.626 -10.185,-2.199 -12.343,-7.34 c -2.099,-5.001 -4.102,-9.771 -13.581,-12.726 16.236,22.051 9.682,31.731 3.327,41.116 -5.556,8.208 -10.813,15.972 -3.006,33.474 37.946,3.268 79.17,39.853 89.127,49.192 -0.67,-7.144 -6.497,-24.953 -23.848,-37.1 M 199.585,179.128 C 197.365,164.081 189.092,140.971 162.274,116.331 135.213,91.467 95.728,71.06 44.875,55.637 c 0.032,2.207 -0.192,4.513 -0.677,6.912 2.392,0.524 4.663,1.206 6.915,1.945 3.088,1.025 6.121,2.141 9.106,3.356 5.976,2.406 11.816,5.072 17.566,7.905 11.493,5.679 22.628,12.02 33.391,18.931 5.376,3.465 10.639,7.1 15.784,10.894 5.139,3.801 10.169,7.751 14.984,11.951 4.822,4.193 9.466,8.589 13.83,13.247 4.361,4.658 8.45,9.581 12.044,14.843 -3.768,-5.139 -8.006,-9.909 -12.5,-14.403 -4.498,-4.492 -9.259,-8.709 -14.188,-12.716 -4.922,-4.014 -10.048,-7.773 -15.275,-11.375 -5.231,-3.597 -10.572,-7.03 -16.017,-10.289 C 98.939,90.339 87.694,84.421 76.16,79.191 70.393,76.583 64.55,74.147 58.633,71.99 c -2.562,-0.945 -5.147,-1.796 -7.736,-2.585 2.712,2.683 5.055,5.485 7.076,8.306 38.624,17.545 65.299,40.576 83.087,60.946 17.288,15.964 44.766,55.81 52.505,73.433 4.936,-5.594 8.279,-17.647 6.02,-32.962 M 123.924,58.339 C 95.288,48.567 62.938,41.66 39.044,40.072 c 0.662,0.768 1.284,1.589 1.864,2.46 6.703,0.626 13.215,1.883 19.648,3.399 6.858,1.62 13.615,3.562 20.285,5.741 13.34,4.359 26.358,9.611 38.98,15.669 12.61,6.074 24.866,12.905 36.406,20.808 11.526,7.895 22.427,16.783 31.862,27.067 -9.741,-9.993 -20.864,-18.508 -32.561,-26.01 C 143.82,81.698 131.443,75.285 118.76,69.643 106.064,64.015 93.011,59.206 79.717,55.303 73.07,53.352 66.358,51.643 59.601,50.261 c -3.376,-0.713 -6.77,-1.283 -10.162,-1.793 -1.97,-0.271 -3.942,-0.504 -5.91,-0.69 0.271,0.776 0.501,1.566 0.69,2.373 45.306,13.535 81.898,30.992 109.07,52.01 30.172,14.331 45.604,33.442 51.578,42.396 1.73,-7.767 2.889,-23.782 -9.057,-43.216 -9.265,-15.076 -34.795,-30.348 -71.886,-43.002 m 10.711,108.173 c -6.171,-9.347 -13.05,-18.206 -20.408,-26.619 -7.364,-8.408 -15.255,-16.353 -23.671,-23.629 -4.215,-3.629 -8.572,-7.08 -13.104,-10.226 -3.026,-2.106 -6.158,-4.05 -9.369,-5.736 0.43,2.275 0.579,4.209 0.495,5.674 28.1,18.751 85.101,104.341 88.474,162.634 8.935,-8.452 19.982,-24.992 20.908,-37.034 1.061,-13.783 -5.217,-40.715 -26.399,-71.255 -15.222,-21.948 -42.787,-52.203 -88.751,-74.717 1.493,2.88 2.669,5.68 3.553,8.28 4.916,2.418 9.424,5.356 13.68,8.556 4.571,3.433 8.892,7.133 13.047,10.992 8.292,7.734 15.961,16.063 23.072,24.826 7.105,8.767 13.692,17.946 19.544,27.576 5.798,9.644 10.962,19.747 14.376,30.463 -3.814,-10.578 -9.328,-20.423 -15.447,-29.785 M 91.115,-4.047 C 66.201,-2.775 39.398,2.116 16.663,9.477 c 0.722,0.965 1.35,1.974 1.889,3.014 l 1.074,-0.342 c 0.613,-0.187 1.224,-0.409 1.84,-0.566 l 1.848,-0.463 3.692,-0.922 C 28.24,9.931 29.477,9.696 30.712,9.444 31.947,9.204 33.18,8.932 34.418,8.72 L 38.134,8.114 C 39.373,7.921 40.608,7.695 41.85,7.528 L 45.573,7.04 c 9.93,-1.281 19.891,-2.07 29.861,-2.5 9.968,-0.427 19.953,-0.415 29.909,0.096 2.49,0.083 4.975,0.312 7.459,0.514 1.24,0.117 2.484,0.171 3.72,0.337 l 3.71,0.457 c 4.949,0.584 9.844,1.577 14.647,2.853 -4.858,-1.072 -9.764,-1.851 -14.715,-2.223 L 116.456,6.276 C 115.221,6.164 113.977,6.161 112.739,6.099 110.261,6.002 107.786,5.879 105.303,5.901 95.386,5.815 85.466,6.225 75.591,7.069 65.718,7.916 55.877,9.118 46.143,10.798 l -3.647,0.637 c -1.214,0.215 -2.415,0.488 -3.623,0.73 l -3.617,0.746 c -1.201,0.26 -2.386,0.576 -3.579,0.861 -1.19,0.296 -2.385,0.575 -3.569,0.884 l -3.502,1.036 -1.75,0.517 c -0.582,0.174 -1.132,0.405 -1.7,0.605 l -0.795,0.29 c 0.255,0.896 0.467,1.796 0.63,2.695 15.463,-2.513 32.063,-3.787 49.047,-3.787 16.735,0 33.831,1.221 50.53,3.67 14.048,2.058 27.126,4.918 37.651,8.099 -0.851,-5.123 -3.073,-13.589 -15.099,-24.269 -6.81,-6.047 -26.259,-8.867 -52.005,-7.559 m 28.718,28.742 C 86.57,19.819 51.76,19.892 21.485,24.851 c 0.023,1.165 -0.018,2.29 -0.106,3.358 1.997,-0.415 3.978,-0.697 5.961,-0.953 3.248,-0.419 6.481,-0.616 9.711,-0.788 6.456,-0.281 12.888,-0.228 19.303,0.019 12.83,0.515 25.593,1.776 38.252,3.689 12.657,1.909 25.222,4.442 37.544,7.879 12.295,3.451 24.455,7.691 35.668,13.817 C 156.412,46.123 144.173,42.309 131.83,39.28 119.465,36.27 106.896,34.166 94.271,32.686 81.647,31.204 68.945,30.375 56.272,30.287 c -6.337,-0.035 -12.67,0.126 -18.948,0.607 -3.131,0.27 -6.262,0.567 -9.326,1.067 -0.066,0.012 -0.133,0.023 -0.2,0.034 1.614,0.727 3.314,1.623 4.999,2.715 24.754,0.651 61.043,8.01 92.763,18.833 1.33,0.452 2.724,0.939 4.166,1.451 29.965,0.575 52.723,11.917 63.686,17.384 1.634,0.814 3.299,1.644 4.583,2.226 C 196.706,66.498 189.937,52.243 176.982,41.447 171.11,36.552 150.72,29.223 119.833,24.695 m 82.745,56.478 -0.001,0.001 c -2.72,1.68 -5.45,0.318 -12.064,-2.98 -6.908,-3.445 -17.392,-8.672 -30.958,-12.366 20.878,10.139 34.91,20.913 41.792,32.11 18.68,30.394 8.31,53.459 7.86,54.427 l -3.442,7.376 -3.687,-7.257 c -0.063,-0.124 -5.037,-9.627 -17.09,-21.063 14.169,18.51 19.318,35.178 21.026,46.759 3.151,21.372 -3.66,36.492 -11.323,41.496 l -4.303,2.811 -1.626,-4.876 c -1.384,-4.151 -4.977,-10.992 -10.091,-19.322 4.42,12.644 6.484,24.487 5.769,33.786 -1.244,16.176 -17.353,37.826 -27.462,45.046 l -6.269,4.478 v -7.704 c 0,-24.886 -12.071,-60.006 -33.118,-96.356 -16.807,-29.027 -37.932,-55.786 -51.666,-65.505 -1.045,0.224 -2.93,0.251 -4.795,-1.615 -0.47,-0.469 -47.428,-46.945 -88.66,-49.522 -1.445,-0.09 -2.725,-0.959 -3.34,-2.269 -10.258,-21.798 -2.967,-32.568 2.893,-41.222 6.53,-9.643 11.247,-16.611 -7.419,-39.01 -0.021,-0.025 -0.043,-0.05 -0.062,-0.076 l -0.251,0.076 -0.424,-1.346 c -0.485,-1.54 -11.772,-38.015 -2.513,-65.791 4.458,-13.376 18.189,-15.374 25.977,-15.374 2.395,0 4.062,0.199 4.374,0.239 l 4.82,0.63 -1.586,4.597 c -0.037,0.107 -2.544,7.428 -4.885,18.273 2.346,-4.663 5.078,-8.086 8.229,-10.338 6.596,-4.711 13.915,-7.099 21.752,-7.099 10.201,0 17.638,4.039 18.452,4.499 l 4.272,2.414 -3.257,3.669 c -0.165,0.186 -14.561,16.543 -22.35,34.216 9.26,-10.321 17.865,-16.572 25.642,-18.613 4.908,-1.29 9.609,-1.943 13.973,-1.943 18.276,0 25.455,11.403 25.751,11.889 l 2.319,3.8 -4.069,1.879 c -2.061,0.943 -18.286,8.543 -32.412,20.674 16.612,-7.356 30.653,-11.077 41.828,-11.077 2.619,0 5.108,0.212 7.397,0.627 29.677,5.395 35.671,19.562 35.912,20.165 l 1.801,4.505 -4.774,0.868 c -0.281,0.051 -23.431,4.312 -42.809,9.866 5.167,-0.32 10.177,-0.481 14.984,-0.481 21.947,0 37.835,3.377 44.741,9.509 15.016,13.337 16.651,24.344 17.437,29.634 0.008,0.054 0.016,0.107 0.023,0.158 7.599,2.664 13.064,5.357 16.247,8.009 16.264,13.554 23.579,31.992 23.579,40.756 0,1.675 -0.782,3.121 -2.144,3.963"
             style="fill:#000000;fill-opacity:1;fill-rule:nonzero;stroke:none"
             id="path9674" />
        </g>
      </g>
    </g>
    <g
       id="g9676">
      <g
         id="g9678"
         clip-path="url(#clipPath9682)">
        <g
           id="g9684">
          <g
             id="g9686">
            <g
               id="g9688"
               clip-path="url(#clipPath9692)">
              <path
                 d="m 53.406,318.866 c 1.411,-8.155 8.172,-22.186 20.962,-32.844 v 0 c 5.873,-4.896 26.263,-12.225 57.149,-16.752 v 0 c 33.264,-4.876 68.075,-4.804 98.348,0.155 v 0 c -0.022,1.164 0.018,2.29 0.107,3.36 v 0 c -1.997,-0.417 -3.978,-0.7 -5.961,-0.954 v 0 c -3.248,-0.419 -6.481,-0.617 -9.711,-0.789 v 0 c -6.456,-0.281 -12.89,-0.227 -19.305,0.019 v 0 c -12.829,0.515 -25.593,1.776 -38.25,3.689 v 0 c -12.657,1.909 -25.223,4.443 -37.544,7.879 v 0 c -12.296,3.451 -24.456,7.691 -35.668,13.817 v 0 c 11.406,-5.749 23.644,-9.562 35.988,-12.591 v 0 c 12.365,-3.011 24.935,-5.115 37.559,-6.595 v 0 c 12.625,-1.482 25.326,-2.311 38,-2.399 v 0 c 6.335,-0.035 12.668,0.126 18.946,0.606 v 0 c 3.13,0.271 6.262,0.568 9.326,1.068 v 0 c 0.067,0.012 0.134,0.023 0.201,0.035 v 0 c -1.615,0.726 -3.316,1.623 -5,2.714 v 0 c -24.753,0.651 -61.042,8.009 -92.763,18.832 v 0 c -1.33,0.454 -2.724,0.94 -4.167,1.453 v 0 C 91.66,300.143 68.9,311.486 57.938,316.952 v 0 c -1.36,0.678 -2.743,1.367 -3.909,1.914 v 0 z"
                 style="fill:url(#linearGradient9698);stroke:none"
                 id="path9700" />
            </g>
          </g>
        </g>
      </g>
    </g>
    <g
       id="g9702">
      <g
         id="g9704"
         clip-path="url(#clipPath9708)">
        <g
           id="g9710">
          <g
             id="g9712">
            <g
               id="g9714"
               clip-path="url(#clipPath9718)">
              <path
                 d="m 256.531,239.821 c -3.527,-5.047 -7.143,-10.119 -10.964,-15.001 v 0 c -4.33,-5.544 -8.879,-10.928 -13.773,-15.985 v 0 c -4.899,-5.049 -10.093,-9.834 -15.78,-13.973 v 0 c -5.672,-4.133 -11.824,-7.693 -18.461,-9.903 v 0 c 6.49,2.608 12.343,6.495 17.683,10.901 v 0 c 5.352,4.414 10.173,9.429 14.683,14.678 v 0 c 4.509,5.26 8.657,10.821 12.581,16.528 v 0 c 2.164,3.14 4.231,6.329 6.263,9.557 v 0 c -7.998,-5.405 -17.437,-11.272 -27.44,-16.713 v 0 C 208.158,201.435 184.564,188.342 176.24,184.109 v 0 c 3.616,-3.502 12.844,-9.558 30.667,-4.878 v 0 c 21.416,5.622 46.309,50.027 50.97,58.654 v 0 c -0.32,0.675 -0.665,1.32 -1.05,1.936 v 0 z"
                 style="fill:url(#linearGradient9724);stroke:none"
                 id="path9726" />
            </g>
          </g>
        </g>
      </g>
    </g>
    <g
       id="g9728">
      <g
         id="g9730"
         clip-path="url(#clipPath9734)">
        <g
           id="g9736">
          <g
             id="g9738">
            <g
               id="g9740"
               clip-path="url(#clipPath9744)">
              <path
                 d="m 237.74,249.712 c -14.654,-4.851 -30.582,-8.541 -46.212,-10.992 v 0 c -11.16,-8.921 -52.534,-17.5 -65.617,-20.041 v 0 -0.154 c 3.284,-3.722 11.28,-10.112 29.021,-13.337 v 0 c 25.747,-4.681 72.595,22.559 96.417,39.386 v 0 c -1.06,0.484 -2.29,0.91 -3.736,1.272 v 0 c -0.269,0.066 -0.523,0.144 -0.783,0.217 v 0 c -7.26,-4.176 -14.732,-7.838 -22.338,-11.17 v 0 c -7.965,-3.479 -16.083,-6.576 -24.322,-9.28 v 0 c -8.24,-2.7 -16.605,-5.009 -25.079,-6.791 v 0 c -8.47,-1.777 -17.055,-3.04 -25.68,-3.457 v 0 c 8.595,0.838 17.069,2.514 25.391,4.69 v 0 c 8.323,2.181 16.497,4.875 24.519,7.944 v 0 c 8.02,3.076 15.889,6.529 23.565,10.338 v 0 c 6.232,3.1 12.351,6.434 18.242,10.06 v 0 c -0.723,0.411 -1.403,0.85 -2.043,1.315 v 0 z"
                 style="fill:url(#linearGradient9750);stroke:none"
                 id="path9752" />
            </g>
          </g>
        </g>
      </g>
    </g>
    <g
       id="g9754">
      <g
         id="g9756"
         clip-path="url(#clipPath9760)">
        <g
           id="g9762">
          <g
             id="g9764">
            <g
               id="g9766"
               clip-path="url(#clipPath9770)">
              <path
                 d="m 211.675,311.19 c 0.874,-0.613 1.272,-1.712 0.99,-2.743 v 0 c -1.957,-7.177 -1.357,-13.312 1.784,-18.233 v 0 c 5.887,-9.218 18.867,-11.517 18.995,-11.539 v 0 c 0.685,-0.115 1.293,-0.506 1.683,-1.084 v 0 c 0.389,-0.575 0.524,-1.286 0.373,-1.965 v 0 c -0.185,-0.833 -4.331,-20.445 13.343,-24.864 v 0 c 10.246,-2.562 12.692,-8.387 14.851,-13.527 v 0 c 2.052,-4.888 4.012,-9.556 12.949,-12.524 v 0 h 0.482 c -16.049,21.909 -9.513,31.557 -3.178,40.913 v 0 c 5.557,8.208 10.814,15.971 3.007,33.474 v 0 c -37.946,3.268 -79.171,39.853 -89.128,49.191 v 0 c 0.67,-7.142 6.498,-24.953 23.849,-37.099"
                 style="fill:url(#linearGradient9776);stroke:none"
                 id="path9778" />
            </g>
          </g>
        </g>
      </g>
    </g>
    <g
       id="g9780">
      <g
         id="g9782"
         clip-path="url(#clipPath9786)">
        <g
           id="g9788">
          <g
             id="g9790">
            <g
               id="g9792"
               clip-path="url(#clipPath9796)">
              <path
                 d="m 260.352,231.848 c -3.041,-5.431 -8.331,-14.421 -14.916,-23.737 v 0 C 243.884,187.624 225.663,163.81 219.05,155.787 v 0 -0.195 c 5.57,-2.105 18.071,-5.135 30.24,3.558 v 0 c 11.787,8.419 15.152,41.279 16.628,65.67 v 0 c -0.387,0.328 -0.751,0.662 -1.096,1 v 0 c -0.233,-1.263 -0.477,-2.521 -0.735,-3.784 v 0 c -0.665,-3.228 -1.414,-6.436 -2.252,-9.62 v 0 c -1.675,-6.366 -3.678,-12.648 -6.153,-18.746 v 0 c -1.221,-3.055 -2.597,-6.049 -4.094,-8.977 v 0 c -1.487,-2.933 -3.146,-5.782 -4.988,-8.503 v 0 c -3.632,-5.462 -8.147,-10.411 -13.575,-14.034 v 0 c 5.182,3.972 9.285,9.121 12.501,14.707 v 0 c 1.633,2.785 3.075,5.678 4.344,8.643 v 0 c 1.28,2.959 2.433,5.973 3.435,9.039 v 0 c 2.032,6.121 3.592,12.393 4.825,18.716 v 0 c 0.616,3.164 1.145,6.343 1.587,9.53 v 0 c 0.404,2.916 0.752,5.887 0.975,8.768 v 0 c -0.048,0.097 -0.096,0.193 -0.143,0.289 v 0 z"
                 style="fill:url(#linearGradient9802);stroke:none"
                 id="path9804" />
            </g>
          </g>
        </g>
      </g>
    </g>
    <g
       id="g9806">
      <g
         id="g9808"
         clip-path="url(#clipPath9812)">
        <g
           id="g9814">
          <g
             id="g9816">
            <g
               id="g9818"
               clip-path="url(#clipPath9822)">
              <path
                 d="M 94.258,513.144 C 85.33,504.681 74.314,488.174 73.391,476.15 v 0 c -1.062,-13.783 5.217,-40.715 26.398,-71.254 v 0 c 15.203,-21.921 42.716,-52.126 88.572,-74.631 v 0 0.259 c -1.408,2.759 -2.524,5.439 -3.374,7.933 v 0 c -4.916,2.419 -9.422,5.357 -13.68,8.557 v 0 c -4.57,3.433 -8.891,7.134 -13.047,10.992 v 0 c -8.292,7.734 -15.96,16.064 -23.072,24.826 v 0 c -7.104,8.768 -13.693,17.946 -19.543,27.577 v 0 c -5.799,9.643 -10.962,19.746 -14.376,30.462 v 0 c 3.814,-10.577 9.327,-20.423 15.447,-29.785 v 0 c 6.17,-9.347 13.05,-18.206 20.408,-26.62 v 0 c 7.364,-8.407 15.255,-16.352 23.672,-23.628 v 0 c 4.214,-3.629 8.571,-7.081 13.102,-10.226 v 0 c 3.027,-2.106 6.158,-4.051 9.37,-5.736 v 0 c -0.43,2.276 -0.579,4.209 -0.495,5.673 v 0 C 154.679,369.296 97.699,454.853 94.302,513.144 v 0 z"
                 style="fill:url(#linearGradient9828);stroke:none"
                 id="path9830" />
            </g>
          </g>
        </g>
      </g>
    </g>
    <g
       id="g9832">
      <g
         id="g9834"
         clip-path="url(#clipPath9838)">
        <g
           id="g9840">
          <g
             id="g9842">
            <g
               id="g9844"
               clip-path="url(#clipPath9848)">
              <path
                 d="m 51.766,423.703 c 2.219,-15.049 10.492,-38.158 37.311,-62.797 v 0 c 27.061,-24.865 66.545,-45.272 117.398,-60.695 v 0 c -0.031,2.208 0.193,4.513 0.677,6.912 v 0 c -2.391,0.525 -4.664,1.205 -6.914,1.945 v 0 c -3.089,1.025 -6.121,2.141 -9.106,3.355 v 0 c -5.976,2.407 -11.817,5.072 -17.567,7.906 v 0 c -11.492,5.679 -22.628,12.02 -33.39,18.93 v 0 c -5.377,3.466 -10.64,7.101 -15.784,10.895 v 0 c -5.138,3.801 -10.168,7.75 -14.984,11.951 v 0 c -4.822,4.193 -9.465,8.59 -13.831,13.247 v 0 c -4.36,4.659 -8.449,9.582 -12.043,14.843 v 0 c 3.768,-5.138 8.005,-9.909 12.499,-14.402 v 0 c 4.498,-4.494 9.261,-8.71 14.187,-12.717 v 0 c 4.923,-4.015 10.05,-7.771 15.275,-11.375 v 0 c 5.232,-3.596 10.573,-7.03 16.018,-10.289 v 0 c 10.899,-6.499 22.144,-12.417 33.678,-17.646 v 0 c 5.768,-2.609 11.61,-5.045 17.527,-7.202 v 0 c 2.561,-0.945 5.146,-1.795 7.735,-2.586 v 0 c -2.711,2.684 -5.054,5.486 -7.074,8.307 v 0 c -38.624,17.545 -65.3,40.576 -83.088,60.947 v 0 c -17.288,15.962 -44.765,55.809 -52.505,73.432 v 0 c -4.936,-5.593 -8.277,-17.648 -6.019,-32.961"
                 style="fill:url(#linearGradient9854);stroke:none"
                 id="path9856" />
            </g>
          </g>
        </g>
      </g>
    </g>
    <g
       id="g9858">
      <g
         id="g9860"
         clip-path="url(#clipPath9864)">
        <g
           id="g9866">
          <g
             id="g9868">
            <g
               id="g9870"
               clip-path="url(#clipPath9874)">
              <path
                 d="m 108.23,248.086 c 6.81,-6.048 26.259,-8.867 52.005,-7.558 v 0 c 24.764,1.262 51.392,6.103 74.039,13.39 v 0 0.707 c -0.551,0.789 -1.043,1.605 -1.476,2.44 v 0 l -1.074,-0.342 c -0.613,-0.187 -1.223,-0.408 -1.839,-0.566 v 0 l -1.848,-0.462 -3.692,-0.922 c -1.235,-0.269 -2.471,-0.501 -3.706,-0.754 v 0 c -1.237,-0.241 -2.468,-0.513 -3.706,-0.726 v 0 l -3.716,-0.605 c -1.24,-0.193 -2.475,-0.42 -3.716,-0.585 v 0 l -3.725,-0.49 c -9.928,-1.281 -19.89,-2.069 -29.859,-2.498 v 0 c -9.969,-0.428 -19.953,-0.416 -29.909,0.095 v 0 c -2.49,0.084 -4.976,0.312 -7.458,0.515 v 0 c -1.241,0.116 -2.485,0.171 -3.722,0.336 v 0 l -3.71,0.458 c -4.948,0.584 -9.844,1.576 -14.645,2.852 v 0 c 4.856,-1.072 9.762,-1.851 14.714,-2.222 v 0 l 3.708,-0.298 c 1.235,-0.113 2.479,-0.115 3.717,-0.178 v 0 c 2.477,-0.097 4.954,-0.22 7.436,-0.198 v 0 c 9.917,-0.086 19.836,0.323 29.712,1.169 v 0 c 9.872,0.846 19.713,2.048 29.447,3.728 v 0 l 3.646,0.637 c 1.215,0.216 2.417,0.488 3.624,0.729 v 0 l 3.617,0.748 c 1.202,0.259 2.386,0.575 3.58,0.861 v 0 c 1.19,0.296 2.386,0.575 3.568,0.884 v 0 l 3.502,1.036 1.75,0.516 c 0.582,0.174 1.133,0.405 1.699,0.605 v 0 l 0.796,0.289 c -0.254,0.897 -0.467,1.798 -0.63,2.696 v 0 c -15.462,-2.513 -32.062,-3.787 -49.047,-3.787 v 0 c -16.735,0 -33.83,1.221 -50.529,3.669 v 0 c -14.049,2.059 -27.126,4.918 -37.651,8.099 v 0 c 0.85,-5.122 3.074,-13.588 15.098,-24.268"
                 style="fill:url(#linearGradient9880);stroke:none"
                 id="path9882" />
            </g>
          </g>
        </g>
      </g>
    </g>
    <g
       id="g9884">
      <g
         id="g9886"
         clip-path="url(#clipPath9890)">
        <g
           id="g9892">
          <g
             id="g9894">
            <g
               id="g9896"
               clip-path="url(#clipPath9900)">
              <path
                 d="m 46.459,389.02 c -1.715,-7.808 -2.807,-23.763 9.081,-43.105 v 0 c 9.265,-15.076 34.796,-30.348 71.886,-43.003 v 0 c 28.637,-9.77 60.987,-16.678 84.88,-18.265 v 0 c -0.661,0.766 -1.283,1.588 -1.863,2.459 v 0 c -6.703,0.626 -13.215,1.883 -19.648,3.399 v 0 c -6.858,1.62 -13.615,3.563 -20.285,5.742 v 0 c -13.339,4.358 -26.359,9.611 -38.98,15.668 v 0 c -12.609,6.074 -24.866,12.905 -36.406,20.809 v 0 c -11.527,7.894 -22.427,16.782 -31.862,27.066 v 0 c 9.741,-9.993 20.865,-18.508 32.56,-26.01 v 0 c 11.708,-7.508 24.084,-13.92 36.769,-19.564 v 0 c 12.694,-5.626 25.749,-10.436 39.043,-14.339 v 0 c 6.645,-1.951 13.357,-3.659 20.116,-5.043 v 0 c 3.376,-0.713 6.769,-1.282 10.161,-1.793 v 0 c 1.971,-0.269 3.942,-0.504 5.911,-0.689 v 0 c -0.271,0.776 -0.502,1.567 -0.691,2.374 v 0 c -45.306,13.535 -81.898,30.991 -109.07,52.01 v 0 C 68.015,361.007 52.586,380.02 46.558,389.02 v 0 z"
                 style="fill:url(#linearGradient9906);stroke:none"
                 id="path9908" />
            </g>
          </g>
        </g>
      </g>
    </g>
    <g
       id="g9910">
      <g
         id="g9912"
         clip-path="url(#clipPath9916)">
        <g
           id="g9918">
          <g
             id="g9920">
            <g
               id="g9922"
               clip-path="url(#clipPath9926)">
              <path
                 d="m 270.777,221.386 c -0.134,-2.014 -0.279,-3.971 -0.431,-5.887 v 0 c 4.801,-27.156 -3.699,-58.526 -6.769,-68.518 v 0 c 5.537,-0.03 16.995,1.129 20.254,10.908 v 0 c 7.603,22.807 -0.16,53.361 -2.121,60.326 v 0 c -0.946,0.182 -1.842,0.379 -2.706,0.586 v 0 c 0.424,-3.365 0.693,-6.702 0.892,-10.049 v 0 c 0.268,-4.674 0.373,-9.344 0.308,-14.013 v 0 c -0.071,-4.667 -0.332,-9.334 -0.886,-13.967 v 0 c -0.115,-1.159 -0.308,-2.312 -0.493,-3.463 v 0 c -0.158,-1.155 -0.408,-2.295 -0.656,-3.435 v 0 c -0.47,-2.281 -1.189,-4.513 -2.069,-6.65 v 0 c 1.421,4.42 1.79,9.055 1.954,13.644 v 0 c 0.13,4.603 -0.034,9.208 -0.383,13.796 v 0 c -0.356,4.588 -0.876,9.16 -1.555,13.699 v 0 c -0.613,4.055 -1.35,8.111 -2.313,12.011 v 0 c -0.856,0.322 -1.66,0.659 -2.414,1.012 v 0 z"
                 style="fill:url(#linearGradient9932);stroke:none"
                 id="path9934" />
            </g>
          </g>
        </g>
      </g>
    </g>
    <g
       id="g9936">
      <g
         id="g9938"
         clip-path="url(#clipPath9942)">
        <g
           id="g9944"
           transform="translate(154.9321,205.1885)">
          <path
             d="m 0,0 c -17.952,3.265 -25.926,9.768 -29.137,13.469 12.955,2.512 54.54,11.115 65.733,20.062 15.961,2.504 32.232,6.298 47.141,11.302 0.759,-0.58 1.579,-1.123 2.459,-1.624 C 80.304,39.583 74.186,36.248 67.954,33.148 60.277,29.34 52.409,25.886 44.389,22.812 36.369,19.741 28.192,17.048 19.87,14.866 11.548,12.69 3.073,11.015 -5.521,10.176 c 8.625,0.417 17.21,1.68 25.68,3.457 8.473,1.783 16.839,4.092 25.079,6.792 8.24,2.704 16.356,5.801 24.322,9.279 7.606,3.332 15.078,6.994 22.338,11.171 0.262,-0.073 0.516,-0.151 0.783,-0.218 1.445,-0.361 2.676,-0.787 3.736,-1.271 C 72.595,22.559 25.746,-4.681 0,0 m 51.975,-25.958 c -17.824,-4.679 -27.051,1.376 -30.667,4.879 8.325,4.232 31.918,17.327 45.082,35.8 10.004,5.44 19.443,11.308 27.441,16.714 C 91.799,28.208 89.733,25.018 87.569,21.878 83.642,16.171 79.496,10.61 74.987,5.351 70.476,0.101 65.656,-4.914 60.305,-9.328 c -5.342,-4.406 -11.194,-8.293 -17.684,-10.9 6.637,2.208 12.789,5.768 18.461,9.9 5.687,4.14 10.882,8.927 15.78,13.974 4.895,5.058 9.443,10.442 13.772,15.986 3.878,4.953 7.543,10.103 11.12,15.223 0.442,-0.682 0.831,-1.402 1.191,-2.158 -4.661,-8.628 -29.554,-53.033 -50.97,-58.655 m 59.011,45.59 c -1.476,-24.392 -4.84,-57.251 -16.628,-65.671 -12.259,-8.757 -24.855,-5.616 -30.362,-3.511 6.507,7.873 24.946,31.857 26.509,52.473 6.661,9.424 11.998,18.516 15.02,23.926 0.077,-0.16 0.155,-0.319 0.235,-0.479 -0.223,-2.88 -0.571,-5.85 -0.974,-8.766 -0.444,-3.188 -0.972,-6.368 -1.588,-9.531 -1.234,-6.324 -2.792,-12.595 -4.826,-18.716 -1,-3.066 -2.155,-6.08 -3.434,-9.04 -1.269,-2.965 -2.711,-5.857 -4.343,-8.642 -3.217,-5.586 -7.32,-10.736 -12.502,-14.708 5.428,3.624 9.943,8.573 13.574,14.035 1.843,2.721 3.502,5.57 4.989,8.503 1.498,2.928 2.873,5.922 4.094,8.975 2.475,6.1 4.478,12.381 6.154,18.748 0.837,3.183 1.586,6.391 2.251,9.62 0.259,1.263 0.502,2.521 0.735,3.784 0.344,-0.338 0.708,-0.672 1.096,-1 M 128.899,-47.3 c -3.259,-9.778 -14.717,-10.937 -20.254,-10.908 3.069,9.992 11.571,41.362 6.771,68.519 0.157,2.006 0.309,4.057 0.449,6.171 0.921,-0.456 1.921,-0.888 3.007,-1.296 0.961,-3.9 1.699,-7.956 2.313,-12.011 0.677,-4.538 1.198,-9.111 1.554,-13.699 0.349,-4.587 0.512,-9.194 0.383,-13.795 -0.164,-4.591 -0.533,-9.225 -1.954,-13.647 0.88,2.14 1.599,4.37 2.069,6.652 0.248,1.139 0.499,2.281 0.656,3.434 0.185,1.152 0.379,2.306 0.492,3.465 0.556,4.632 0.815,9.299 0.887,13.967 0.063,4.667 -0.04,9.338 -0.308,14.012 -0.2,3.347 -0.467,6.683 -0.892,10.048 0.862,-0.207 1.76,-0.404 2.706,-0.586 1.961,-6.964 9.723,-37.519 2.121,-60.326 M 32.894,143.101 c 9.958,-9.338 51.182,-45.923 89.128,-49.192 7.807,-17.503 2.55,-25.265 -3.008,-33.473 -6.353,-9.385 -12.908,-19.065 3.328,-41.117 -9.478,2.955 -11.481,7.726 -13.581,12.727 -2.158,5.141 -4.604,10.966 -14.85,13.527 -17.672,4.419 -13.529,24.032 -13.343,24.865 0.15,0.678 0.015,1.389 -0.373,1.965 -0.39,0.577 -0.998,0.968 -1.684,1.083 -0.127,0.022 -13.107,2.322 -18.992,11.539 -3.143,4.921 -3.742,11.056 -1.786,18.235 0.282,1.031 -0.115,2.128 -0.989,2.742 -17.352,12.145 -23.18,29.956 -23.85,37.099 m -130.04,108.375 c 7.738,-17.624 35.216,-57.469 52.504,-73.434 17.788,-20.369 44.463,-43.399 83.088,-60.945 2.02,-2.822 4.363,-5.623 7.075,-8.307 -2.59,0.79 -5.174,1.641 -7.735,2.586 -5.917,2.157 -11.761,4.593 -17.529,7.201 -11.533,5.23 -22.777,11.148 -33.676,17.647 -5.446,3.258 -10.787,6.692 -16.019,10.289 -5.225,3.603 -10.352,7.36 -15.274,11.375 -4.928,4.007 -9.69,8.223 -14.188,12.716 -4.495,4.494 -8.732,9.264 -12.5,14.403 3.595,-5.262 7.684,-10.185 12.044,-14.843 4.365,-4.659 9.009,-9.055 13.83,-13.247 4.817,-4.2 9.846,-8.15 14.985,-11.951 5.144,-3.794 10.408,-7.429 15.784,-10.895 10.762,-6.911 21.897,-13.252 33.39,-18.93 5.751,-2.834 11.59,-5.499 17.568,-7.906 2.983,-1.214 6.016,-2.331 9.106,-3.355 2.249,-0.74 4.522,-1.421 6.912,-1.946 -0.483,-2.399 -0.708,-4.704 -0.675,-6.913 -50.855,15.424 -90.338,35.831 -117.4,60.696 -26.817,24.639 -35.091,47.75 -37.31,62.797 -2.259,15.315 1.084,27.367 6.02,32.962 m -2.247,-110.749 c -11.944,19.434 -10.785,35.449 -9.055,43.215 5.975,-8.954 21.406,-28.064 51.578,-42.395 27.171,-21.019 63.763,-38.475 109.07,-52.01 0.189,-0.807 0.419,-1.598 0.688,-2.373 -1.967,0.186 -3.938,0.419 -5.909,0.69 -3.392,0.509 -6.785,1.079 -10.161,1.792 -6.758,1.382 -13.471,3.091 -20.116,5.043 -13.294,3.903 -26.348,8.711 -39.043,14.338 -12.685,5.644 -25.061,12.057 -36.769,19.565 -11.697,7.502 -22.818,16.016 -32.56,26.01 9.434,-10.285 20.335,-19.172 31.861,-27.067 11.54,-7.903 23.797,-14.734 36.407,-20.808 12.622,-6.058 25.64,-11.309 38.98,-15.669 6.67,-2.179 13.426,-4.121 20.285,-5.742 6.431,-1.515 12.944,-2.773 19.647,-3.398 0.58,-0.871 1.202,-1.692 1.864,-2.46 -23.893,1.588 -56.243,8.495 -84.879,18.267 -37.091,12.654 -62.621,27.925 -71.888,43.002 m 45.73,94.956 c 3.414,-10.717 8.577,-20.82 14.375,-30.463 5.852,-9.63 12.44,-18.809 19.544,-27.576 7.112,-8.763 14.78,-17.092 23.073,-24.827 4.154,-3.858 8.476,-7.558 13.047,-10.992 4.256,-3.199 8.763,-6.137 13.679,-8.554 0.885,-2.601 2.06,-5.401 3.552,-8.282 -45.962,22.515 -73.527,52.77 -88.75,74.718 -21.182,30.54 -27.459,57.471 -26.399,71.255 0.926,12.042 11.974,28.582 20.909,37.033 3.372,-58.292 60.374,-143.883 88.473,-162.634 -0.084,-1.465 0.065,-3.398 0.495,-5.673 -3.211,1.685 -6.342,3.629 -9.369,5.736 -4.533,3.145 -8.889,6.597 -13.102,10.225 -8.417,7.277 -16.309,15.222 -23.672,23.629 -7.357,8.413 -14.238,17.273 -20.408,26.619 -6.119,9.363 -11.633,19.208 -15.447,29.786 m 6.962,-192.786 c -12.026,10.681 -14.25,19.147 -15.1,24.27 10.526,-3.182 23.604,-6.041 37.651,-8.1 16.7,-2.448 33.795,-3.67 50.53,-3.67 16.984,0 33.584,1.275 49.047,3.787 0.163,-0.898 0.375,-1.798 0.629,-2.695 l -0.795,-0.29 C 74.695,56 74.144,55.769 73.562,55.595 l -1.75,-0.516 -3.502,-1.037 c -1.182,-0.31 -2.379,-0.588 -3.568,-0.884 -1.194,-0.285 -2.378,-0.601 -3.58,-0.861 L 57.545,51.551 C 56.337,51.309 55.137,51.036 53.921,50.82 L 50.275,50.183 C 40.542,48.504 30.7,47.302 20.827,46.455 10.953,45.61 1.033,45.2 -8.884,45.287 c -2.482,-0.022 -4.958,0.101 -7.436,0.197 -1.239,0.063 -2.482,0.066 -3.717,0.178 l -3.708,0.298 c -4.951,0.372 -9.857,1.15 -14.715,2.223 4.802,-1.277 9.699,-2.269 14.646,-2.852 l 3.71,-0.458 c 1.236,-0.166 2.481,-0.221 3.721,-0.337 2.484,-0.202 4.968,-0.431 7.458,-0.514 9.956,-0.511 19.942,-0.523 29.91,-0.096 9.97,0.429 19.931,1.219 29.86,2.5 l 3.724,0.488 c 1.241,0.167 2.476,0.393 3.716,0.586 l 3.716,0.605 c 1.237,0.212 2.469,0.485 3.706,0.725 1.234,0.252 2.472,0.486 3.706,0.754 l 3.692,0.922 1.848,0.463 c 0.616,0.157 1.226,0.379 1.839,0.566 l 1.075,0.342 c 0.539,-1.04 1.166,-2.049 1.888,-3.015 C 57.021,41.502 30.216,36.61 5.303,35.339 -20.443,34.03 -39.892,36.851 -46.701,42.897 m -33.864,37.936 c -12.954,10.796 -19.723,25.051 -21.012,33.156 1.285,-0.581 2.95,-1.411 4.583,-2.225 10.962,-5.467 33.722,-16.81 63.686,-17.384 1.442,-0.513 2.836,-0.999 4.166,-1.452 31.721,-10.823 68.01,-18.181 92.764,-18.832 1.683,-1.092 3.383,-1.989 4.999,-2.715 -0.067,-0.011 -0.133,-0.024 -0.201,-0.034 -3.064,-0.5 -6.196,-0.797 -9.326,-1.068 -6.278,-0.48 -12.611,-0.641 -18.946,-0.606 -12.675,0.088 -25.376,0.917 -38,2.399 -12.624,1.48 -25.194,3.583 -37.56,6.594 -12.343,3.028 -24.581,6.843 -35.988,12.591 11.213,-6.124 23.373,-10.365 35.669,-13.817 12.321,-3.436 24.887,-5.969 37.543,-7.878 12.659,-1.914 25.422,-3.174 38.251,-3.689 6.415,-0.247 12.849,-0.3 19.306,-0.019 3.229,0.171 6.462,0.369 9.71,0.788 1.982,0.254 3.963,0.538 5.961,0.953 -0.089,-1.068 -0.128,-2.194 -0.107,-3.359 -30.273,-4.959 -65.084,-5.031 -98.348,-0.154 -30.887,4.526 -51.276,11.856 -57.15,16.751 m -27.738,35.763 c 0,-8.764 7.314,-27.201 23.578,-40.756 3.184,-2.652 8.648,-5.346 16.246,-8.009 0.009,-0.052 0.016,-0.104 0.024,-0.158 0.787,-5.289 2.421,-16.297 17.438,-29.634 6.905,-6.133 22.794,-9.51 44.741,-9.51 4.807,0 9.817,0.161 14.984,0.482 -19.378,-5.554 -42.53,-9.816 -42.81,-9.866 l -4.774,-0.869 1.802,-4.505 C -36.833,13.169 -30.839,-0.998 -1.163,-6.394 1.126,-6.81 3.616,-7.02 6.235,-7.02 17.409,-7.02 31.45,-3.299 48.062,4.057 33.937,-8.074 17.711,-15.675 15.65,-16.617 l -4.068,-1.879 2.317,-3.8 c 0.297,-0.486 7.476,-11.89 25.753,-11.89 4.364,0 9.064,0.654 13.974,1.944 7.776,2.041 16.38,8.292 25.64,18.613 -7.789,-17.673 -22.184,-34.03 -22.35,-34.217 l -3.256,-3.669 4.271,-2.414 c 0.815,-0.46 8.251,-4.499 18.452,-4.499 7.837,0 15.157,2.389 21.752,7.1 3.153,2.252 5.883,5.675 8.23,10.338 -2.341,-10.845 -4.849,-18.166 -4.886,-18.274 l -1.586,-4.596 4.82,-0.63 c 0.312,-0.039 1.98,-0.239 4.374,-0.239 7.788,0 21.519,1.998 25.978,15.375 9.259,27.775 -2.028,64.25 -2.514,65.79 l -0.423,1.345 -0.252,-0.075 c -0.019,0.025 -0.041,0.051 -0.061,0.077 -18.666,22.398 -13.949,29.366 -7.421,39.009 5.861,8.653 13.153,19.424 2.895,41.221 -0.616,1.309 -1.896,2.178 -3.34,2.269 -41.234,2.576 -88.19,49.053 -88.66,49.523 -1.866,1.866 -3.751,1.838 -4.795,1.614 -13.735,9.719 -34.861,36.478 -51.667,65.506 -21.046,36.349 -33.117,71.47 -33.117,96.356 v 7.704 l -6.27,-4.478 c -10.109,-7.22 -26.217,-28.87 -27.461,-45.047 -0.716,-9.298 1.348,-21.142 5.769,-33.785 -5.114,8.329 -8.707,15.171 -10.091,19.322 l -1.626,4.875 -4.303,-2.81 c -7.664,-5.004 -14.475,-20.124 -11.323,-41.496 1.707,-11.582 6.856,-28.25 21.025,-46.759 -12.053,11.434 -17.027,20.94 -17.09,21.063 l -3.686,7.257 -3.442,-7.376 c -0.452,-0.968 -10.821,-24.033 7.86,-54.428 6.882,-11.196 20.914,-21.971 41.791,-32.109 -13.566,3.693 -24.049,8.921 -30.957,12.366 -6.614,3.298 -9.344,4.66 -12.065,2.979 h -10e-4 c -1.362,-0.843 -2.143,-2.288 -2.143,-3.963"
             style="fill:#000000;fill-opacity:1;fill-rule:nonzero;stroke:none"
             id="path9946" />
        </g>
      </g>
    </g>
  </g>
</svg>
